<?xml version="1.0" encoding="utf-8"?>
<!-- Generator: Adobe Illustrator 21.0.2, SVG Export Plug-In . SVG Version: 6.00 Build 0)  -->
<svg version="1.1" id="Layer_1" xmlns="http://www.w3.org/2000/svg" xmlns:xlink="http://www.w3.org/1999/xlink" x="0px" y="0px"
	 viewBox="0 0 164 165.8" style="enable-background:new 0 0 164 165.8;" xml:space="preserve">
<style type="text/css">
	.st0{fill:#FFFFFF;}
</style>
<title>Group 165</title>
<desc>Created with Sketch.</desc>
<g>
	<g transform="translate(-5635.000000, -7853.000000)">
		<g transform="translate(5635.000000, 7852.000000)">
			<path d="M98.7,82.6c-1.8-4.6-5.5-8.3-10.1-10.1L58.3,24.7l11.4,50.9c-2.1,1.9-3.8,4.2-4.9,6.9H7.3c0-41.1,33.4-74.5,74.5-74.5
				c41.1,0,74.5,33.4,74.5,74.5H98.7z M110.8,126.7c0,3.8-3.1,6.8-6.8,6.8H59.6c-3.8,0-6.8-3.1-6.8-6.8c0-3.8,3.1-6.8,6.8-6.8H104
				C107.7,119.9,110.8,122.9,110.8,126.7L110.8,126.7z M81.8,1C36.8,1,0.2,37.6,0.2,82.6s36.6,81.6,81.6,81.6
				c40.4,0,74-29.5,80.5-68.1h0v-0.1c0.7-4.4,1.1-8.8,1.1-13.4C163.4,37.6,126.8,1,81.8,1L81.8,1z"/>
		</g>
	</g>
</g>
<rect x="45.3" y="109" width="78.5" height="25.3"/>
<g>
	<path class="st0" d="M60.3,120l6.9,1c-1.3,3.7-3.4,6.4-6.1,8.4s-5.9,2.9-9.5,2.9c-4.1,0-7.3-1.2-9.5-3.6c-2.3-2.4-3.4-5.9-3.4-10.4
		c0-3.7,0.8-7.1,2.3-10.2c1.5-3.1,3.7-5.4,6.4-7c2.7-1.6,5.7-2.4,8.9-2.4c3.6,0,6.5,0.9,8.7,2.8s3.5,4.5,3.9,7.7l-6.6,0.6
		c-0.4-1.9-1.1-3.3-2.1-4.1c-1-0.9-2.4-1.3-4.1-1.3c-1.9,0-3.7,0.6-5.3,1.7c-1.6,1.1-3,2.9-3.9,5.3c-1,2.4-1.5,4.8-1.5,7.2
		c0,2.6,0.6,4.6,1.9,6c1.3,1.4,2.9,2.1,4.8,2.1c1.8,0,3.4-0.6,4.9-1.7C58.4,123.9,59.5,122.2,60.3,120z"/>
	<path class="st0" d="M69.6,131.7l7-32.5h23.3l-1.2,5.4H82.3l-1.7,7.8h16.1l-1.2,5.4H79.5l-3,13.8H69.6z"/>
	<path class="st0" d="M98.1,131.7l6.9-32.5h24.7l-1.2,5.4h-17.8l-1.6,7.4h17.2l-1.2,5.4H108l-2.1,8.8h19.4l-1.2,5.4H98.1z"/>
</g>
</svg>
