<svg xmlns="http://www.w3.org/2000/svg" viewBox="0 0 58.65 47.25"><defs><style>.cls-1{fill:#333;}</style></defs><title>adaptive-web-icon</title><g id="Layer_2" data-name="Layer 2"><g id="Layer_1-2" data-name="Layer 1"><path class="cls-1" d="M57.07,42.75H40.65V22.35H57.07ZM48.9,46.13a1.05,1.05,0,1,1,1.05-1.05A1.12,1.12,0,0,1,48.9,46.13ZM15.15,34.43v-1.5a1.78,1.78,0,0,0-1.73-1.88h-7a1.78,1.78,0,0,0-1.73,1.88v1.5H3V3h46.5V17.25H42.07a3,3,0,0,0-3.07,3V34.43Zm-1.5,10H6.3V32.92c0-.23.15-.37.23-.37h7c.07,0,.23.15.23.38V44.4ZM55.57,17.25h-3V2.93A2.91,2.91,0,0,0,49.72,0H2.85A2.87,2.87,0,0,0,0,2.93V34.5a2.91,2.91,0,0,0,2.85,2.93H4.73v8a1.78,1.78,0,0,0,1.73,1.88h7a1.78,1.78,0,0,0,1.73-1.87v-8h7.57l-1.66,6.82H18.45a1.5,1.5,0,0,0,0,3H33.82a1.5,1.5,0,0,0,0-3H31.57l-1.65-6.82h9.15v6.82a3.08,3.08,0,0,0,3.07,3H55.57a3,3,0,0,0,3.07-3v-24A3,3,0,0,0,55.57,17.25Z"/></g></g></svg>