<?xml version="1.0" encoding="utf-8"?>
<!-- Generator: Adobe Illustrator 21.0.2, SVG Export Plug-In . SVG Version: 6.00 Build 0)  -->
<svg version="1.1" id="Layer_1" xmlns="http://www.w3.org/2000/svg" xmlns:xlink="http://www.w3.org/1999/xlink" x="0px" y="0px"
	 viewBox="0 0 792 612" style="enable-background:new 0 0 792 612;" xml:space="preserve">
<style type="text/css">
	.st0{fill:#214478;stroke:#005F93;stroke-miterlimit:10;}
	.st1{fill:#FFFFFF;}
	.st2{fill:#D4AA00;stroke:#99883D;stroke-width:0.5;stroke-miterlimit:10;}
	.st3{fill:#FFFFFF;stroke:#99883D;stroke-miterlimit:10;}
	.st4{fill:#D4AA00;stroke:#99883D;stroke-miterlimit:10;}
	.st5{opacity:0.34;fill:#FFFFFF;}
	.st6{fill:#D4AA00;}
</style>
<path class="st0" d="M211,186c0,0,11-92.2,123.5-132.7c0,0,108.5-32,185.5,61c0,0,105.3-12,148.7,71.7c43.3,83.7,7,136.3,7,136.3
	S646,390,557.7,404H203.5c0,0-101.5,0.3-101.5-120.7C102,283.3,112,185.2,211,186z"/>
<circle class="st1" cx="396" cy="240.2" r="148.5"/>
<circle class="st2" cx="398.3" cy="241.3" r="118.3"/>
<path class="st3" d="M386.7,160c0,0-34.8,92.8-34.8,93.3s29.7-2.8,29.7-2.8L361.2,345l88.5-128.5l-32,1.8l33.2-64.7L386.7,160z"/>
<g>
	<path class="st0" d="M100.8,439.7h19.7c2.3,0,3.9,1.2,4.7,3.5l22.7,69.1c0.5,1.4,0.5,2.5-0.1,3.4c-0.6,0.9-1.5,1.3-2.8,1.3h-16.6
		c-2.6,0-4.2-1.2-4.8-3.6l-2.4-8.4h-20.9l-2.3,8.4c-0.7,2.4-2.3,3.6-4.8,3.6H76.4c-1.3,0-2.3-0.4-2.8-1.3c-0.6-0.9-0.6-2-0.1-3.4
		l22.7-69.1C96.9,440.8,98.5,439.7,100.8,439.7z M103.9,485.5h13.3l-6.2-22.5h-0.3L103.9,485.5z"/>
	<path class="st0" d="M196.4,513v-24.8h-17.5V513c0,2.6-1.3,3.9-3.9,3.9h-16c-2.6,0-3.9-1.3-3.9-3.9v-69.4c0-2.6,1.3-3.9,3.9-3.9h16
		c2.6,0,3.9,1.3,3.9,3.9v23.7h17.5v-23.7c0-2.6,1.3-3.9,3.9-3.9h16c2.6,0,3.9,1.3,3.9,3.9V513c0,2.6-1.3,3.9-3.9,3.9h-16
		C197.7,516.9,196.4,515.6,196.4,513z"/>
	<path class="st0" d="M239.1,448.1c6.3-6.5,15-9.8,26.3-9.8c11.2,0,20,3.3,26.3,9.8c6.3,6.5,9.4,16.6,9.4,30.2
		c0,13.6-3.1,23.7-9.4,30.2c-6.3,6.5-15,9.8-26.3,9.8c-11.2,0-20-3.3-26.3-9.8c-6.3-6.5-9.4-16.6-9.4-30.2
		C229.7,464.7,232.8,454.6,239.1,448.1z M256.7,493.4c1.9,3.1,4.8,4.6,8.7,4.6c3.9,0,6.8-1.5,8.7-4.6c1.9-3.1,2.8-8.1,2.8-15.1
		c0-7-0.9-12-2.8-15.1c-1.9-3.1-4.8-4.6-8.7-4.6c-3.9,0-6.8,1.5-8.7,4.6c-1.9,3.1-2.8,8.1-2.8,15.1
		C253.9,485.3,254.8,490.3,256.7,493.4z"/>
	<path class="st0" d="M314.5,439.7h27.9c11,0,19.3,2.1,24.9,6.4c5.5,4.3,8.3,11.4,8.3,21.3c0,11-4.7,18.7-14,23l13.1,21.6
		c0.8,1.3,1,2.5,0.5,3.4c-0.4,1-1.4,1.5-2.7,1.5h-16c-2.4,0-4.2-1.1-5.5-3.2L339.8,494h-5.6v19c0,2.6-1.3,3.9-3.9,3.9h-15.8
		c-2.6,0-3.9-1.3-3.9-3.9v-69.4C310.5,441,311.8,439.7,314.5,439.7z M334.2,475.5h7.9c3.4,0,5.9-0.7,7.4-2c1.5-1.3,2.2-3.3,2.2-6.1
		c0-3.1-0.7-5.3-2.2-6.4c-1.5-1.1-3.9-1.7-7.4-1.7h-7.9V475.5z"/>
	<path class="st0" d="M388.7,439.7h27.9c11,0,19.3,2.1,24.9,6.4c5.5,4.3,8.3,11.4,8.3,21.3c0,11-4.7,18.7-14,23l13.1,21.6
		c0.8,1.3,1,2.5,0.5,3.4c-0.4,1-1.4,1.5-2.7,1.5h-16c-2.4,0-4.2-1.1-5.5-3.2L414,494h-5.6v19c0,2.6-1.3,3.9-3.9,3.9h-15.8
		c-2.6,0-3.9-1.3-3.9-3.9v-69.4C384.8,441,386.1,439.7,388.7,439.7z M408.4,475.5h7.9c3.4,0,5.9-0.7,7.4-2c1.5-1.3,2.2-3.3,2.2-6.1
		c0-3.1-0.7-5.3-2.2-6.4c-1.5-1.1-3.9-1.7-7.4-1.7h-7.9V475.5z"/>
	<path class="st0" d="M482.6,439.7h19.7c2.3,0,3.9,1.2,4.7,3.5l22.7,69.1c0.5,1.4,0.5,2.5-0.1,3.4c-0.6,0.9-1.5,1.3-2.8,1.3H510
		c-2.6,0-4.2-1.2-4.8-3.6l-2.4-8.4h-20.9l-2.3,8.4c-0.7,2.4-2.3,3.6-4.8,3.6h-16.6c-1.3,0-2.3-0.4-2.8-1.3c-0.6-0.9-0.6-2-0.1-3.4
		l22.7-69.1C478.6,440.8,480.2,439.7,482.6,439.7z M485.6,485.5h13.3l-6.2-22.5h-0.3L485.6,485.5z"/>
	<path class="st4" d="M524.3,456.7v-13.1c0-2.6,1.3-3.9,3.9-3.9h51.9c2.6,0,3.9,1.3,3.9,3.9v13.1c0,2.6-1.3,3.9-3.9,3.9h-14V513
		c0,2.6-1.3,3.9-3.9,3.9h-16c-2.6,0-3.9-1.3-3.9-3.9v-52.4h-14C525.6,460.6,524.3,459.3,524.3,456.7z"/>
	<path class="st4" d="M640.3,487.1h-24.6v10.1h26.9c2.6,0,3.9,1.3,3.9,3.9V513c0,2.6-1.3,3.9-3.9,3.9h-46.4c-2.6,0-3.9-1.3-3.9-3.9
		v-69.4c0-2.6,1.3-3.9,3.9-3.9h45.8c2.6,0,3.9,1.3,3.9,3.9v11.8c0,2.6-1.3,3.9-3.9,3.9h-26.3v9.1h24.6c2.6,0,3.8,1.3,3.8,3.9v11
		C644.1,485.9,642.8,487.1,640.3,487.1z"/>
	<path class="st4" d="M694.2,497.7c3.7,0,7.3-0.7,10.8-2.2c1.5-0.6,2.6-0.7,3.5-0.5c0.8,0.3,1.5,1,2.1,2.2l4.6,9.8
		c0.5,1.3,0.6,2.3,0.3,3c-0.3,0.7-1.1,1.4-2.3,2.2c-5.9,3.9-13.6,5.9-23,5.9c-11.7,0-20.8-3.3-27.4-9.8c-6.6-6.5-9.9-16.6-9.9-30.2
		c0-13.7,3.2-23.7,9.6-30.2c6.4-6.5,15.4-9.7,27-9.7c9.3,0,16.8,1.9,22.7,5.8c1.2,0.8,2,1.5,2.3,2.2c0.3,0.7,0.2,1.7-0.3,3l-4.5,9.7
		c-0.5,1.2-1.2,2-2.1,2.2c-0.9,0.3-2,0.1-3.5-0.5c-3.2-1.3-6.7-2-10.5-2c-6,0-10.2,1.5-12.8,4.4c-2.5,2.9-3.8,7.9-3.8,15.1
		c0,7.1,1.3,12.1,3.9,15C683.8,496.3,688.2,497.7,694.2,497.7z"/>
</g>
<circle class="st1" cx="496.5" cy="210" r="5.3"/>
<path class="st1" d="M490.1,216.9c0,0,23.9,25.3,2,76.3c0,0,23.6-26.6,13.6-78.6C505.8,214.5,500.5,222,490.1,216.9z"/>
<circle class="st1" cx="299.8" cy="272.9" r="5.3"/>
<path class="st1" d="M306.2,266c0,0-23.9-25.3-2-76.3c0,0-23.6,26.6-13.6,78.6C290.6,268.4,295.8,260.9,306.2,266z"/>
<rect x="515.7" y="291.2" transform="matrix(0.9261 0.3772 -0.3772 0.9261 158.5799 -185.2079)" class="st1" width="72.8" height="42"/>
<path class="st5" d="M585.3,365.1c0,0-34.1-13.8-15-45l9.3-15.9c0,0,14.3-10.2,33.3-1.5l61.6,23.3c0,0-9.1,29.7-48.6,54.6"/>
<path class="st1" d="M613,302.7c-19-8.7-33.3,1.5-33.3,1.5l-9.3,15.9c-19.1,31.2,15,45,15,45l38.4,14.6c0,0,30.1-16.9,50.8-53.7"/>
<g>
	<path class="st6" d="M136.7,543.8h8.3l6.1,19.4l6.1-19.4h8l4.2,32.4h-6.7l-2.9-22.8l-7.1,22.8h-3.2l-7.3-23l-2.7,23h-6.8
		L136.7,543.8z"/>
	<path class="st6" d="M173.3,560c0-4.8,1.6-8.8,4.8-11.9c3.2-3.1,6.9-4.7,11.3-4.7c4.8,0,8.8,1.6,11.9,4.7c3.1,3.1,4.7,7.1,4.7,11.9
		c0,4.8-1.6,8.7-4.7,11.9s-7,4.7-11.8,4.7s-8.6-1.6-11.7-4.7C174.9,568.8,173.3,564.9,173.3,560z M189.7,549.9
		c-2.7,0-4.9,0.9-6.6,2.8c-1.7,1.9-2.5,4.4-2.5,7.5c0,2.9,0.8,5.3,2.5,7.2s3.8,2.8,6.4,2.8c2.7,0,4.9-0.9,6.6-2.8s2.5-4.3,2.5-7.4
		c0-3-0.8-5.4-2.5-7.3C194.6,550.9,192.4,550,189.7,549.9z"/>
	<path class="st6" d="M233.3,543.8h6.8v32.4h-6.8l-14.8-21v21h-7v-32.4h6.9l14.9,20.9V543.8z"/>
	<path class="st6" d="M246.3,543.8h7v32.4h-7V543.8z"/>
	<path class="st6" d="M257.6,543.8h21.8v6.9H272v25.6h-7v-25.6h-7.4V543.8z"/>
	<path class="st6" d="M282.5,560c0-4.8,1.6-8.8,4.8-11.9c3.2-3.1,6.9-4.7,11.3-4.7c4.8,0,8.8,1.6,11.9,4.7c3.1,3.1,4.7,7.1,4.7,11.9
		c0,4.8-1.6,8.7-4.7,11.9s-7,4.7-11.8,4.7s-8.6-1.6-11.7-4.7C284,568.8,282.5,564.9,282.5,560z M298.9,549.9c-2.7,0-4.9,0.9-6.6,2.8
		c-1.7,1.9-2.5,4.4-2.5,7.5c0,2.9,0.8,5.3,2.5,7.2s3.8,2.8,6.4,2.8c2.7,0,4.9-0.9,6.6-2.8s2.5-4.3,2.5-7.4c0-3-0.8-5.4-2.5-7.3
		C303.8,550.9,301.6,550,298.9,549.9z"/>
	<path class="st6" d="M321,543.8h10.7c3.2,0,5.8,0.9,7.7,2.6c1.9,1.7,2.8,4,2.8,6.9c0,1.7-0.4,3.4-1.3,5.2c-0.9,1.8-2.5,3.2-4.8,4.2
		l9.1,13.5h-8l-8.4-12.6H328v12.6h-7V543.8z M328,549.6v8.5h1.5c3.7,0,5.5-1.5,5.5-4.5c0-1.2-0.5-2.2-1.4-2.9c-1-0.7-2.3-1.1-4-1.1
		H328z"/>
	<path class="st6" d="M350.6,543.8h18.3v6.4h-11.3v6.5h11.3v6.3h-11.3v6.7h11.3v6.4h-18.3V543.8z"/>
	<path class="st6" d="M373.7,560c0-4.8,1.6-8.8,4.8-11.9c3.2-3.1,6.9-4.7,11.3-4.7c4.8,0,8.8,1.6,11.9,4.7c3.1,3.1,4.7,7.1,4.7,11.9
		c0,4.8-1.6,8.7-4.7,11.9c-3.1,3.1-7,4.7-11.8,4.7s-8.6-1.6-11.7-4.7C375.3,568.8,373.7,564.9,373.7,560z M390.1,549.9
		c-2.7,0-4.9,0.9-6.6,2.8c-1.7,1.9-2.5,4.4-2.5,7.5c0,2.9,0.8,5.3,2.5,7.2s3.8,2.8,6.4,2.8c2.7,0,4.9-0.9,6.6-2.8s2.5-4.3,2.5-7.4
		c0-3-0.8-5.4-2.5-7.3C395,550.9,392.8,550,390.1,549.9z"/>
	<path class="st6" d="M425.6,543.8h11.1c4.7,0,8.5,1.5,11.4,4.5c2.9,3,4.3,6.9,4.3,11.8c0,4.9-1.5,8.8-4.5,11.8
		c-3,2.9-6.9,4.4-11.9,4.4h-10.5V543.8z M432.6,549.9v20h2.8c2.9,0,5.2-0.8,7.1-2.3c1.8-1.6,2.8-4.2,2.8-7.8c0-2.1-0.4-4-1.3-5.6
		c-0.9-1.6-2.2-2.8-3.9-3.3c-1.7-0.6-3.3-0.9-4.8-0.9H432.6z"/>
	<path class="st6" d="M457.9,543.8h18.3v6.4h-11.3v6.5h11.3v6.3h-11.3v6.7h11.3v6.4h-18.3V543.8z"/>
	<path class="st6" d="M495.6,543.8h18.3v6.4h-11.3v6.5h11.3v6.3h-11.3v6.7h11.3v6.4h-18.3V543.8z"/>
	<path class="st6" d="M541.2,543.8h6.8v32.4h-6.8l-14.8-21v21h-7v-32.4h6.9l14.9,20.9V543.8z"/>
	<path class="st6" d="M554.7,543.8h18.3v6.4h-11.3v6.5h11.3v6.3h-11.3v6.7h11.3v6.4h-18.3V543.8z"/>
	<path class="st6" d="M578.8,543.8h10.7c3.2,0,5.8,0.9,7.7,2.6c1.9,1.7,2.8,4,2.8,6.9c0,1.7-0.4,3.4-1.3,5.2
		c-0.9,1.8-2.5,3.2-4.8,4.2l9.1,13.5h-8l-8.4-12.6h-0.8v12.6h-7V543.8z M585.8,549.6v8.5h1.5c3.7,0,5.5-1.5,5.5-4.5
		c0-1.2-0.5-2.2-1.4-2.9c-1-0.7-2.3-1.1-4-1.1H585.8z"/>
	<path class="st6" d="M634.4,550.9l-4.6,4.3c-1-1.7-2.2-2.9-3.6-3.8c-1.4-0.8-2.9-1.2-4.5-1.2c-2.5,0-4.7,1-6.6,2.9
		c-1.9,1.9-2.8,4.2-2.8,6.8c0,2.8,0.9,5.1,2.8,7.1c1.9,1.9,4.1,2.9,6.8,2.9c1.4,0,2.8-0.4,4.1-1.1c1.3-0.7,2.4-2.1,3.2-4.1h-7.7
		v-6.3h15v4.2c0,2.2-0.7,4.5-2.2,7c-1.5,2.5-3.4,4.3-5.9,5.4c-2.4,1.1-4.9,1.7-7.3,1.7c-4.5,0-8.3-1.6-11.3-4.9
		c-3.1-3.2-4.6-7.3-4.6-12c0-4.5,1.6-8.4,4.8-11.6c3.2-3.2,7-4.8,11.5-4.8C627,543.4,631.4,545.9,634.4,550.9z"/>
	<path class="st6" d="M641.2,541.6l3.5-7.4h7.7l-6.8,7.4H641.2z M641.3,543.8h7v32.4h-7V543.8z"/>
	<path class="st6" d="M666.1,543.8h5.4l13.2,32.4h-7l-2.6-6.4h-12.5l-2.5,6.4h-7L666.1,543.8z M668.8,554.4L665,564h7.7L668.8,554.4
		z"/>
</g>
<image style="display:none;overflow:visible;opacity:0.51;" width="1541" height="1189" xlink:href="D:\Dropbox\Ahorratec\Logotipos\Ahorratec remaster.jpg"  transform="matrix(0.4879 0 0 0.5026 18.7768 9)">
</image>
</svg>
