<?xml version="1.0" encoding="utf-8"?>
<!-- Generator: Adobe Illustrator 21.0.2, SVG Export Plug-In . SVG Version: 6.00 Build 0)  -->
<svg version="1.1" id="Layer_1" xmlns="http://www.w3.org/2000/svg" xmlns:xlink="http://www.w3.org/1999/xlink" x="0px" y="0px"
	 viewBox="0 0 164 165.8" style="enable-background:new 0 0 164 165.8;" xml:space="preserve">
<style type="text/css">
	.st0{fill:#FFFFFF;}
	.st1{font-family:'MyriadPro-BoldCondIt';}
	.st2{font-size:45.4553px;}
</style>
<title>Group 165</title>
<desc>Created with Sketch.</desc>
<g>
	<g transform="translate(-5635.000000, -7853.000000)">
		<g transform="translate(5635.000000, 7852.000000)">
			<path d="M98.7,82.6c-1.8-4.6-5.5-8.3-10.1-10.1L58.3,24.7l11.4,50.9c-2.1,1.9-3.8,4.2-4.9,6.9H7.3c0-41.1,33.4-74.5,74.5-74.5
				c41.1,0,74.5,33.4,74.5,74.5H98.7z M110.8,126.7c0,3.8-3.1,6.8-6.8,6.8H59.6c-3.8,0-6.8-3.1-6.8-6.8c0-3.8,3.1-6.8,6.8-6.8H104
				C107.7,119.9,110.8,122.9,110.8,126.7L110.8,126.7z M81.8,1C36.8,1,0.2,37.6,0.2,82.6s36.6,81.6,81.6,81.6
				c40.4,0,74-29.5,80.5-68.1h0v-0.1c0.7-4.4,1.1-8.8,1.1-13.4C163.4,37.6,126.8,1,81.8,1L81.8,1z"/>
		</g>
	</g>
</g>
<rect x="45.3" y="109" width="78.5" height="25.3"/>
<text transform="matrix(1.4833 0 0 1 41.249 132.708)" class="st0 st1 st2">CFE</text>
</svg>
