<?xml version="1.0" encoding="utf-8"?>
<!-- Generator: Adobe Illustrator 21.0.2, SVG Export Plug-In . SVG Version: 6.00 Build 0)  -->
<svg version="1.1" id="Layer_1" xmlns="http://www.w3.org/2000/svg" xmlns:xlink="http://www.w3.org/1999/xlink" x="0px" y="0px"
	 viewBox="0 0 512 531" style="enable-background:new 0 0 512 531;" xml:space="preserve">
<style type="text/css">
	.st0{stroke:#005F93;stroke-miterlimit:10;}
	.st1{fill:#FFFFFF;}
</style>
<g>
	<path d="M248.5,451.1c-4.2,4.2-4.2,10.9,0,15.1c4.2,4.2,10.9,4.2,15.1,0c4.2-4.2,4.2-10.9,0-15.1C259.4,447,252.6,447,248.5,451.1z
		"/>
	<path d="M248.5,408.5c-4.2,4.2-4.2,10.9,0,15.1c4.2,4.2,10.9,4.2,15.1,0c4.2-4.2,4.2-10.9,0-15.1
		C259.4,404.3,252.6,404.3,248.5,408.5z"/>
	<path d="M460.2,386.4l-1.8-0.5c-26.5-7.1-35.4-13.9-47.2-18.4c-28-10.7-42.2-19.4-49.3-25.6l-6.1-45.2c19.9-26.9,34.6-59.6,37.3-94
		h11.5c5.9,0,8.4-4.2,5.7-9.4c0,0-3.3-6.1-12.3-14.3v-26.4c0-74.8-59-136-131.3-141.5c0-0.1,0-0.3,0-0.4C266.7,4.8,261.9,0,256,0
		s-10.7,4.8-10.7,10.7c0,0.1,0,0.3,0,0.4c-72.3,5.5-131.3,66.8-131.3,141.5l0,26.4c-9,8.1-12.3,14.3-12.3,14.3
		c-2.8,5.2-0.2,9.4,5.7,9.4h11.5c2.7,34.3,17.4,67.1,37.3,94l-6.1,45.2c-7.1,6.2-21.2,14.9-49.3,25.6c-11.8,4.5-20.7,11.3-47.2,18.4
		l-1.8,0.5c-24.1,8-40.3,30.3-40.3,55.5V512h201.9h85.3h201.9v-70.1C500.5,416.7,484.3,394.3,460.2,386.4z M340.6,343.2l-32.2,35.9
		L283,357.2c17.9-7.3,37-20.8,54.3-38.6L340.6,343.2z M203.6,379.1l-32.2-35.9l3.3-24.7c17.2,17.8,36.4,31.4,54.3,38.6L203.6,379.1z
		 M148.1,181.3c11.2-5.9,24.4-10.7,39.3-14.2c20-4.7,43.1-7.1,68.6-7.1c25.4,0,48.5,2.4,68.6,7.1c14.9,3.5,28.1,8.3,39.3,14.2H148.1
		z M145,105.8c6.2-14.3,15-27.3,26.2-38.4c11.2-11.1,24.1-19.8,38.5-25.9C224.4,35.2,240,32,256,32s31.6,3.2,46.3,9.5
		c14.4,6.1,27.3,14.8,38.5,25.9c11.2,11.1,20,24,26.2,38.4c6.4,14.9,9.6,30.6,9.6,46.8V164c-23.3-13-61-25.3-120.6-25.3
		c-59.6,0-97.4,12.3-120.6,25.3v-11.4C135.4,136.4,138.6,120.6,145,105.8z M371.7,202.7c-3,32-18.4,65.7-43.3,94.1
		c-12.3,14-26,25.6-39.7,33.8c-12.2,7.3-23.8,11.3-32.7,11.3s-20.5-4-32.7-11.3c-13.7-8.1-27.4-19.8-39.7-33.8
		c-24.9-28.4-40.3-62.1-43.3-94.1H371.7z M32.8,490.7v-48.8c0-15.9,10.2-30,25.3-35.2l1.2-0.3c19.9-5.4,31-10.7,39.8-14.9
		c3.4-1.6,6.4-3,9.3-4.1c16.1-6.2,36.4-14.7,51-25.7l35.4,39.4c2.1,2.3,5,3.5,7.9,3.5c2.5,0,5-0.9,7-2.6l3.7-3.2v91.8L32.8,490.7
		L32.8,490.7z M234.7,490.7V380.5l20.1-17.4c0.4,0,0.8,0,1.2,0s0.8,0,1.2,0l20.1,17.4v110.2H234.7z M479.2,490.7H298.7v-91.8
		l3.7,3.2c2,1.7,4.5,2.6,7,2.6c2.9,0,5.8-1.2,8-3.5l35.4-39.4c14.5,10.9,34.8,19.5,51,25.7c2.8,1.1,5.8,2.5,9.2,4.1
		c8.9,4.2,19.9,9.5,39.8,14.9l1.2,0.3c15.2,5.2,25.3,19.3,25.3,35.2L479.2,490.7L479.2,490.7z"/>
</g>
<path class="st0" d="M346.8,431.7c0,0,2.3-19.7,26.4-28.3c0,0,23.2-6.8,39.6,13c0,0,22.5-2.6,31.7,15.3s1.5,29.1,1.5,29.1
	s-6.3,14.4-25.2,17.4h-75.6c0,0-21.7,0.1-21.7-25.8C323.5,452.4,325.7,431.5,346.8,431.7z"/>
<circle class="st1" cx="386.8" cy="443.2" r="31.7"/>
<circle cx="386.8" cy="443.4" r="25.3"/>
<path class="st1" d="M384.3,426.1c0,0-7.4,19.8-7.4,19.9c0,0.1,6.3-0.6,6.3-0.6l-4.3,20.2l18.9-27.4l-6.8,0.4l7.1-13.8L384.3,426.1z
	"/>
<circle class="st1" cx="407.7" cy="436.7" r="1.1"/>
<path class="st1" d="M406.4,438.2c0,0,5.1,5.4,0.4,16.3c0,0,5-5.7,2.9-16.8C409.7,437.7,408.6,439.3,406.4,438.2z"/>
<path class="st1" d="M367.1,448.7c0,0-5.1-5.4-0.4-16.3c0,0-5,5.7-2.9,16.8C363.8,449.2,364.9,447.6,367.1,448.7z"/>
</svg>
