<?xml version="1.0" encoding="utf-8"?>
<!-- Generator: Adobe Illustrator 21.0.2, SVG Export Plug-In . SVG Version: 6.00 Build 0)  -->
<svg version="1.1" id="Layer_1" xmlns="http://www.w3.org/2000/svg" xmlns:xlink="http://www.w3.org/1999/xlink" x="0px" y="0px"
	 viewBox="0 0 100 99.8" style="enable-background:new 0 0 100 99.8;" xml:space="preserve">
<path d="M99.9,48.3h-4v-5.1c0-0.6-0.4-1-1-1c-0.6,0-1,0.4-1,1v5.1h-5.4v-5.1c0-0.6-0.4-1-1-1s-1,0.4-1,1v5.1h-4
	c-0.4,0-0.8,0.4-0.8,0.8v1.1c0,0.4,0.4,0.8,0.8,0.8h0.7v1.8c0,4.3,2.9,8,6.7,8.7v10.5c0,7.8,0,17.5-3.9,21.2
	c-1.2,1.1-2.9,1.6-4.9,1.5c-2.7-0.2-4.4-0.9-5.3-2.2c-1.7-2.4-0.5-7,0.7-11.9c0.7-2.4,1.2-5,1.6-7.5c0.5-3.3-0.7-6.3-3.3-8.3
	c-2.8-2.1-6.7-2.4-9.9-0.8c-1.8,0.9-4.5,3-6.2,7.4c-0.1-0.2-0.2-0.4-0.3-0.6c0.2,1.5,0.5,2.9,0.8,4.4c0.7,0.3,1.3,0.6,1.8,1
	c-0.1-0.2-0.2-0.4-0.3-0.6c0.9-5.8,3.7-8,5.4-8.9c2.3-1.1,5-0.9,6.9,0.5c1,0.7,2.6,2.5,2.1,5.4c-0.4,2.5-1,4.9-1.5,7.3
	c-1.4,5.7-2.7,10.9-0.2,14.4c1.4,2,3.8,3.1,7.4,3.3h1c2.5,0,4.5-0.8,6.2-2.4c4.8-4.5,4.8-14.6,4.8-23.4V61.6
	c3.7-0.7,6.7-4.4,6.7-8.7v-1.8h0.7c0.4,0,0.8-0.4,0.8-0.8v-1.1C100.7,48.7,100.3,48.3,99.9,48.3z"/>
<path d="M44.5,38.8c0.3-0.3,0.7-0.5,1.1-0.7c0.1,0,0.2,0,0.2-0.1l0,0l0,0h0.1l2.7-0.4l-0.4,2.7c0,0,0,0,0,0.1v0.1l0,0
	c-0.1,0.5-0.3,0.9-0.7,1.3c-0.9,0.9-2.3,1-3.1,0.2C43.6,41.1,43.7,39.7,44.5,38.8z M31.8,35.5c0-0.1,0.1-0.1,0.1-0.2l0,0l0,0
	c0,0,0-0.1,0.1-0.1l1.5-2.2l1.5,2.2c0,0,0,0,0,0.1v0.1l0,0c0.3,0.4,0.4,0.9,0.4,1.4c0,1.3-1,2.3-2,2.3c-1.2,0-2-1.1-2-2.3
	C31.5,36.3,31.6,35.9,31.8,35.5z M21.2,38L21.2,38L21.2,38L21.2,38c0.2,0,0.3,0,0.3,0.1c0.4,0.1,0.8,0.3,1.1,0.7
	c0.9,0.9,1,2.3,0.2,3.1c-0.8,0.8-2.2,0.8-3.1-0.2c-0.4-0.4-0.6-0.9-0.7-1.3l0,0v-0.1c0,0,0,0,0-0.1l-0.4-2.7L21.2,38z M15.9,54.4
	c-0.1,0-0.1-0.1-0.2-0.1l0,0l0,0c0,0-0.1,0-0.1-0.1l-2.2-1.6l2.2-1.6c0,0,0,0,0.1,0h0.1l0,0c0.4-0.3,0.9-0.4,1.4-0.4
	c1.3,0,2.3,1,2.3,2c0,1.2-1.1,2-2.3,2C16.6,54.7,16.3,54.6,15.9,54.4z M22.5,65.9c-0.3,0.3-0.7,0.5-1.1,0.7c-0.1,0-0.2,0-0.2,0.1
	l0,0l0,0h-0.1L18.5,67l0.4-2.7c0,0,0,0,0-0.1v-0.1l0,0c0.1-0.5,0.3-0.9,0.7-1.3c0.9-0.9,2.3-1,3.1-0.2
	C23.5,63.5,23.4,64.9,22.5,65.9z M35.6,68.7c0,0.1-0.1,0.1-0.1,0.2l0,0l0,0c0,0,0,0.1-0.1,0.1l-1.5,2.2L32.4,69c0,0,0,0,0-0.1v-0.1
	l0,0c-0.3-0.4-0.4-0.9-0.4-1.4c0-1.3,1-2.3,2-2.3c1.1,0,2,1.1,2,2.3C35.9,67.9,35.8,68.4,35.6,68.7z M33.5,63.9
	c-6.2,0-11.2-5-11.2-11.3s5-11.3,11.2-11.3s11.2,5,11.2,11.3S39.7,63.9,33.5,63.9z M45.9,66.7L45.9,66.7L45.9,66.7L45.9,66.7
	c-0.2,0-0.3,0-0.3-0.1c-0.4-0.1-0.8-0.3-1.1-0.7c-0.9-0.9-1-2.3-0.2-3.1c0.8-0.8,2.2-0.8,3.1,0.2c0.4,0.4,0.6,0.9,0.7,1.3l0,0v0.1
	c0,0,0,0,0,0.1l0.4,2.7L45.9,66.7z M51.1,54.1C51.1,54.1,51.1,54.2,51.1,54.1L51.1,54.1L51.1,54.1c-0.5,0.4-1,0.5-1.4,0.5
	c-1.3,0-2.3-1-2.3-2c0-1.1,1.1-2,2.3-2c0.4,0,0.9,0.1,1.2,0.3c0.1,0,0.1,0.1,0.2,0.1l0,0l0,0c0,0,0.1,0,0.1,0.1l2.2,1.6L51.1,54.1z
	 M62.1,15.6c-1.2-1.1-3-1.7-5.4-1.7H45.6V8.9c0-2.4-0.6-4.2-1.7-5.4c-1.2-1.1-3-1.7-5.4-1.7H28.4c-2.4,0-4.2,0.6-5.4,1.7
	c-1.1,1.2-1.7,3-1.7,5.4V14H10.2c-2.4,0-4.2,0.6-5.4,1.7c-1.1,1.2-1.7,3-1.7,5.4v70.8c0,2.4,0.6,4.2,1.7,5.4c1.2,1.1,3,1.7,5.4,1.7
	h46.5c2.4,0,4.2-0.6,5.4-1.7c1.1-1.2,1.7-3,1.7-5.4V21C63.8,18.6,63.3,16.8,62.1,15.6 M13.4,153.2h36.4v12.1H13.4V153.2"/>
</svg>
