<?xml version="1.0" encoding="utf-8"?>
<!-- Generator: Adobe Illustrator 21.0.2, SVG Export Plug-In . SVG Version: 6.00 Build 0)  -->
<svg version="1.1" id="Layer_1" xmlns="http://www.w3.org/2000/svg" xmlns:xlink="http://www.w3.org/1999/xlink" x="0px" y="0px"
	 viewBox="0 0 792 612" style="enable-background:new 0 0 792 612;" xml:space="preserve">
<style type="text/css">
	.st0{fill:#214478;stroke:#FFFFFF;stroke-width:17;stroke-miterlimit:10;}
	.st1{fill:#FFFFFF;}
	.st2{fill:#D4AA00;stroke:#99883D;stroke-width:0.5;stroke-miterlimit:10;}
	.st3{fill:#FFFFFF;stroke:#99883D;stroke-miterlimit:10;}
	.st4{fill:#214478;stroke:#FFFFFF;stroke-width:8;stroke-miterlimit:10;}
	.st5{fill:#D4AA00;stroke:#FFFFFF;stroke-width:8;stroke-miterlimit:10;}
	.st6{opacity:0.34;fill:#FFFFFF;}
</style>
<path class="st0" d="M211,186c0,0,11-92.2,123.5-132.7c0,0,108.5-32,185.5,61c0,0,105.3-12,148.7,71.7c43.3,83.7,7,136.3,7,136.3
	S646,390,557.7,404H203.5c0,0-101.5,0.3-101.5-120.7C102,283.3,112,185.2,211,186z"/>
<circle class="st1" cx="396" cy="240.2" r="148.5"/>
<circle class="st2" cx="398.3" cy="241.3" r="118.3"/>
<path class="st3" d="M386.7,160c0,0-34.8,92.8-34.8,93.3s29.7-2.8,29.7-2.8L361.2,345l88.5-128.5l-32,1.8l33.2-64.7L386.7,160z"/>
<g>
	<path class="st4" d="M100.8,439.7h19.7c2.3,0,3.9,1.2,4.7,3.5l22.7,69.1c0.5,1.4,0.5,2.5-0.1,3.4c-0.6,0.9-1.5,1.3-2.8,1.3h-16.6
		c-2.6,0-4.2-1.2-4.8-3.6l-2.4-8.4h-20.9l-2.3,8.4c-0.7,2.4-2.3,3.6-4.8,3.6H76.4c-1.3,0-2.3-0.4-2.8-1.3c-0.6-0.9-0.6-2-0.1-3.4
		l22.7-69.1C96.9,440.8,98.5,439.7,100.8,439.7z M103.9,485.5h13.3l-6.2-22.5h-0.3L103.9,485.5z"/>
	<path class="st4" d="M196.4,513v-24.8h-17.5V513c0,2.6-1.3,3.9-3.9,3.9h-16c-2.6,0-3.9-1.3-3.9-3.9v-69.4c0-2.6,1.3-3.9,3.9-3.9h16
		c2.6,0,3.9,1.3,3.9,3.9v23.7h17.5v-23.7c0-2.6,1.3-3.9,3.9-3.9h16c2.6,0,3.9,1.3,3.9,3.9V513c0,2.6-1.3,3.9-3.9,3.9h-16
		C197.7,516.9,196.4,515.6,196.4,513z"/>
	<path class="st4" d="M239.1,448.1c6.3-6.5,15-9.8,26.3-9.8c11.2,0,20,3.3,26.3,9.8c6.3,6.5,9.4,16.6,9.4,30.2
		c0,13.6-3.1,23.7-9.4,30.2c-6.3,6.5-15,9.8-26.3,9.8c-11.2,0-20-3.3-26.3-9.8c-6.3-6.5-9.4-16.6-9.4-30.2
		C229.7,464.7,232.8,454.6,239.1,448.1z M256.7,493.4c1.9,3.1,4.8,4.6,8.7,4.6c3.9,0,6.8-1.5,8.7-4.6c1.9-3.1,2.8-8.1,2.8-15.1
		c0-7-0.9-12-2.8-15.1c-1.9-3.1-4.8-4.6-8.7-4.6c-3.9,0-6.8,1.5-8.7,4.6c-1.9,3.1-2.8,8.1-2.8,15.1
		C253.9,485.3,254.8,490.3,256.7,493.4z"/>
	<path class="st4" d="M314.5,439.7h27.9c11,0,19.3,2.1,24.9,6.4c5.5,4.3,8.3,11.4,8.3,21.3c0,11-4.7,18.7-14,23l13.1,21.6
		c0.8,1.3,1,2.5,0.5,3.4c-0.4,1-1.4,1.5-2.7,1.5h-16c-2.4,0-4.2-1.1-5.5-3.2L339.8,494h-5.6v19c0,2.6-1.3,3.9-3.9,3.9h-15.8
		c-2.6,0-3.9-1.3-3.9-3.9v-69.4C310.5,441,311.8,439.7,314.5,439.7z M334.2,475.5h7.9c3.4,0,5.9-0.7,7.4-2c1.5-1.3,2.2-3.3,2.2-6.1
		c0-3.1-0.7-5.3-2.2-6.4c-1.5-1.1-3.9-1.7-7.4-1.7h-7.9V475.5z"/>
	<path class="st4" d="M388.7,439.7h27.9c11,0,19.3,2.1,24.9,6.4c5.5,4.3,8.3,11.4,8.3,21.3c0,11-4.7,18.7-14,23l13.1,21.6
		c0.8,1.3,1,2.5,0.5,3.4c-0.4,1-1.4,1.5-2.7,1.5h-16c-2.4,0-4.2-1.1-5.5-3.2L414,494h-5.6v19c0,2.6-1.3,3.9-3.9,3.9h-15.8
		c-2.6,0-3.9-1.3-3.9-3.9v-69.4C384.8,441,386.1,439.7,388.7,439.7z M408.4,475.5h7.9c3.4,0,5.9-0.7,7.4-2c1.5-1.3,2.2-3.3,2.2-6.1
		c0-3.1-0.7-5.3-2.2-6.4c-1.5-1.1-3.9-1.7-7.4-1.7h-7.9V475.5z"/>
	<path class="st4" d="M482.6,439.7h19.7c2.3,0,3.9,1.2,4.7,3.5l22.7,69.1c0.5,1.4,0.5,2.5-0.1,3.4c-0.6,0.9-1.5,1.3-2.8,1.3H510
		c-2.6,0-4.2-1.2-4.8-3.6l-2.4-8.4h-20.9l-2.3,8.4c-0.7,2.4-2.3,3.6-4.8,3.6h-16.6c-1.3,0-2.3-0.4-2.8-1.3c-0.6-0.9-0.6-2-0.1-3.4
		l22.7-69.1C478.6,440.8,480.2,439.7,482.6,439.7z M485.6,485.5h13.3l-6.2-22.5h-0.3L485.6,485.5z"/>
	<path class="st5" d="M524.3,456.7v-13.1c0-2.6,1.3-3.9,3.9-3.9h51.9c2.6,0,3.9,1.3,3.9,3.9v13.1c0,2.6-1.3,3.9-3.9,3.9h-14V513
		c0,2.6-1.3,3.9-3.9,3.9h-16c-2.6,0-3.9-1.3-3.9-3.9v-52.4h-14C525.6,460.6,524.3,459.3,524.3,456.7z"/>
	<path class="st5" d="M640.3,487.1h-24.6v10.1h26.9c2.6,0,3.9,1.3,3.9,3.9V513c0,2.6-1.3,3.9-3.9,3.9h-46.4c-2.6,0-3.9-1.3-3.9-3.9
		v-69.4c0-2.6,1.3-3.9,3.9-3.9h45.8c2.6,0,3.9,1.3,3.9,3.9v11.8c0,2.6-1.3,3.9-3.9,3.9h-26.3v9.1h24.6c2.6,0,3.8,1.3,3.8,3.9v11
		C644.1,485.9,642.8,487.1,640.3,487.1z"/>
	<path class="st5" d="M694.2,497.7c3.7,0,7.3-0.7,10.8-2.2c1.5-0.6,2.6-0.7,3.5-0.5c0.8,0.3,1.5,1,2.1,2.2l4.6,9.8
		c0.5,1.3,0.6,2.3,0.3,3c-0.3,0.7-1.1,1.4-2.3,2.2c-5.9,3.9-13.6,5.9-23,5.9c-11.7,0-20.8-3.3-27.4-9.8c-6.6-6.5-9.9-16.6-9.9-30.2
		c0-13.7,3.2-23.7,9.6-30.2c6.4-6.5,15.4-9.7,27-9.7c9.3,0,16.8,1.9,22.7,5.8c1.2,0.8,2,1.5,2.3,2.2c0.3,0.7,0.2,1.7-0.3,3l-4.5,9.7
		c-0.5,1.2-1.2,2-2.1,2.2c-0.9,0.3-2,0.1-3.5-0.5c-3.2-1.3-6.7-2-10.5-2c-6,0-10.2,1.5-12.8,4.4c-2.5,2.9-3.8,7.9-3.8,15.1
		c0,7.1,1.3,12.1,3.9,15C683.8,496.3,688.2,497.7,694.2,497.7z"/>
</g>
<circle class="st1" cx="496.5" cy="210" r="5.3"/>
<path class="st1" d="M490.1,216.9c0,0,23.9,25.3,2,76.3c0,0,23.6-26.6,13.6-78.6C505.8,214.5,500.5,222,490.1,216.9z"/>
<circle class="st1" cx="299.8" cy="272.9" r="5.3"/>
<path class="st1" d="M306.2,266c0,0-23.9-25.3-2-76.3c0,0-23.6,26.6-13.6,78.6C290.6,268.4,295.8,260.9,306.2,266z"/>
<rect x="515.7" y="291.2" transform="matrix(0.9261 0.3772 -0.3772 0.9261 158.5799 -185.2079)" class="st1" width="72.8" height="42"/>
<path class="st6" d="M585.3,365.1c0,0-34.1-13.8-15-45l9.3-15.9c0,0,14.3-10.2,33.3-1.5l61.6,23.3c0,0-9.1,29.7-48.6,54.6"/>
<path class="st1" d="M613,302.7c-19-8.7-33.3,1.5-33.3,1.5l-9.3,15.9c-19.1,31.2,15,45,15,45l38.4,14.6c0,0,30.1-16.9,50.8-53.7"/>
<image style="display:none;overflow:visible;opacity:0.51;" width="1541" height="1189" xlink:href="D:\Dropbox\Ahorratec\Logotipos\Ahorratec remaster.jpg"  transform="matrix(0.4879 0 0 0.5026 18.7768 9)">
</image>
</svg>
