<?xml version="1.0" encoding="utf-8"?>
<!-- Generator: Adobe Illustrator 21.0.2, SVG Export Plug-In . SVG Version: 6.00 Build 0)  -->
<svg version="1.1"
	 id="svg9619" inkscape:version="0.48.0 r9654" sodipodi:docname="New document 34" xmlns:cc="http://creativecommons.org/ns#" xmlns:dc="http://purl.org/dc/elements/1.1/" xmlns:inkscape="http://www.inkscape.org/namespaces/inkscape" xmlns:rdf="http://www.w3.org/1999/02/22-rdf-syntax-ns#" xmlns:sodipodi="http://sodipodi.sourceforge.net/DTD/sodipodi-0.dtd" xmlns:svg="http://www.w3.org/2000/svg"
	 xmlns="http://www.w3.org/2000/svg" xmlns:xlink="http://www.w3.org/1999/xlink" x="0px" y="0px" viewBox="0 0 258.4 126.9"
	 style="enable-background:new 0 0 258.4 126.9;" xml:space="preserve">
<style type="text/css">
	.st0{clip-path:url(#SVGID_2_);filter:url(#filter6654);}
	.st1{fill:url(#SVGID_3_);}
	.st2{clip-path:url(#SVGID_5_);filter:url(#filter6650);}
	.st3{fill:url(#SVGID_6_);}
	.st4{clip-path:url(#SVGID_8_);filter:url(#filter6646);}
	.st5{fill:url(#SVGID_9_);}
	.st6{fill:none;stroke:#807EAD;stroke-width:0.6545;stroke-linejoin:round;}
	.st7{clip-path:url(#SVGID_11_);filter:url(#filter6642);}
	.st8{fill:url(#SVGID_12_);}
	.st9{fill:none;stroke:#807EAD;stroke-width:0.7875;stroke-linejoin:round;}
	.st10{clip-path:url(#SVGID_14_);filter:url(#filter6638);}
	.st11{fill:url(#SVGID_15_);}
	.st12{fill:none;stroke:#807EAD;stroke-width:1.0828;stroke-linejoin:round;}
	.st13{clip-path:url(#SVGID_17_);filter:url(#filter6634);}
	.st14{fill:url(#SVGID_18_);}
	.st15{fill:none;stroke:#E3D7EB;stroke-width:1.5;stroke-linecap:round;stroke-linejoin:round;}
	.st16{fill:url(#path7641_1_);}
	.st17{fill:url(#path7643_1_);}
	.st18{fill:url(#path7645_1_);}
	.st19{fill:url(#path7647_1_);}
	.st20{enable-background:new    ;}
	.st21{fill:#3C0F51;}
</style>
<filter  color-interpolation-filters="sRGB" id="filter6654" inkscape:collect="always">
	<feGaussianBlur  id="feGaussianBlur6656" inkscape:collect="always" stdDeviation="0.44943121"></feGaussianBlur>
</filter>
<filter  color-interpolation-filters="sRGB" id="filter6650" inkscape:collect="always">
	<feGaussianBlur  id="feGaussianBlur6652" inkscape:collect="always" stdDeviation="0.40403781"></feGaussianBlur>
</filter>
<filter  color-interpolation-filters="sRGB" id="filter6646" inkscape:collect="always">
	<feGaussianBlur  id="feGaussianBlur6648" inkscape:collect="always" stdDeviation="0.13181277"></feGaussianBlur>
</filter>
<filter  color-interpolation-filters="sRGB" id="filter6642" inkscape:collect="always">
	<feGaussianBlur  id="feGaussianBlur6644" inkscape:collect="always" stdDeviation="0.15860075"></feGaussianBlur>
</filter>
<filter  color-interpolation-filters="sRGB" id="filter6638" inkscape:collect="always">
	<feGaussianBlur  id="feGaussianBlur6640" inkscape:collect="always" stdDeviation="0.21808078"></feGaussianBlur>
</filter>
<filter  color-interpolation-filters="sRGB" id="filter6634" inkscape:collect="always">
	<feGaussianBlur  id="feGaussianBlur6636" inkscape:collect="always" stdDeviation="0.2942314"></feGaussianBlur>
</filter>
<sodipodi:namedview  bordercolor="#666666" borderopacity="1.0" fit-margin-bottom="0" fit-margin-left="0" fit-margin-right="0" fit-margin-top="0" id="base" inkscape:current-layer="layer1" inkscape:cx="227.02995" inkscape:cy="68.594" inkscape:document-units="px" inkscape:pageopacity="0.0" inkscape:pageshadow="2" inkscape:window-height="459" inkscape:window-maximized="0" inkscape:window-width="465" inkscape:window-x="0" inkscape:window-y="24" inkscape:zoom="0.35" pagecolor="#ffffff" showgrid="false">
	</sodipodi:namedview>
<g id="layer1" transform="translate(-147.97005,-538.05744)" inkscape:groupmode="layer" inkscape:label="Layer 1">
	
		<g id="g6666" transform="translate(-130.90495,-248.91131)" inkscape:export-filename="/home/andyp/Desktop/text6731.png" inkscape:export-xdpi="80" inkscape:export-ydpi="80">
		<g>
			<defs>
				<path id="SVGID_1_" d="M287.5,852.1h45.2c4.1,0,7.4,3.5,7.4,7.8v43.3c0,4.3-3.3,7.8-7.4,7.8h-45.2c-4.1,0-7.4-3.5-7.4-7.8v-43.3
					C280.2,855.6,283.5,852.1,287.5,852.1z"/>
			</defs>
			<clipPath id="SVGID_2_">
				<use xlink:href="#SVGID_1_"  style="overflow:visible;"/>
			</clipPath>
			<g id="rect5036" class="st0">
				
					<linearGradient id="SVGID_3_" gradientUnits="userSpaceOnUse" x1="609.8148" y1="110.8057" x2="628.922" y2="130.4511" gradientTransform="matrix(0.9589 0 0 -1.0136 -265.3288 981.1655)">
					<stop  offset="0" style="stop-color:#FFFFFF"/>
					<stop  offset="1" style="stop-color:#FFFFFF;stop-opacity:0"/>
				</linearGradient>
				<rect x="279.6" y="852.2" class="st1" width="55.8" height="59.1"/>
			</g>
		</g>
		<g>
			<defs>
				<path id="SVGID_4_" d="M287.9,852.1h44.5c4.3,0,7.7,3.5,7.7,7.8v43.3c0,4.3-3.4,7.8-7.7,7.8h-44.5c-4.3,0-7.7-3.5-7.7-7.8v-43.3
					C280.2,855.6,283.6,852.1,287.9,852.1z"/>
			</defs>
			<clipPath id="SVGID_5_">
				<use xlink:href="#SVGID_4_"  style="overflow:visible;"/>
			</clipPath>
			<g id="rect6113" class="st2">
				
					<linearGradient id="SVGID_6_" gradientUnits="userSpaceOnUse" x1="554.238" y1="111.7827" x2="603.514" y2="153.1608" gradientTransform="matrix(1.0903 0 0 -1.1031 -307.4099 1016.9188)">
					<stop  offset="0" style="stop-color:#8D89C2"/>
					<stop  offset="1" style="stop-color:#FFFFF9;stop-opacity:0.9828"/>
				</linearGradient>
				<rect x="275.7" y="852.4" class="st3" width="63.5" height="64.3"/>
			</g>
		</g>
		<g>
			<defs>
				<path id="SVGID_7_" d="M287.9,852.1h44.4c4.3,0,7.8,3.5,7.8,7.8v43.3c0,4.3-3.5,7.8-7.8,7.8h-44.4c-4.3,0-7.8-3.5-7.8-7.8v-43.3
					C280.2,855.6,283.6,852.1,287.9,852.1z"/>
			</defs>
			<clipPath id="SVGID_8_">
				<use xlink:href="#SVGID_7_"  style="overflow:visible;"/>
			</clipPath>
			
				<g id="path5872" sodipodi:cx="95.123322" sodipodi:cy="477.94135" sodipodi:end="1.5681251" sodipodi:rx="23.0602" sodipodi:ry="23.0602" sodipodi:start="0" sodipodi:type="arc" class="st4">
				
					<linearGradient id="SVGID_9_" gradientUnits="userSpaceOnUse" x1="45.1738" y1="613.1773" x2="35.8813" y2="622.5606" gradientTransform="matrix(0 -3.3685 -3.3545 0 2397.7432 1003.317)">
					<stop  offset="0" style="stop-color:#8D89C2"/>
					<stop  offset="1" style="stop-color:#FFFFF9;stop-opacity:0.9828"/>
				</linearGradient>
				<path class="st5" d="M278.6,835.8c42.6,0,77.2,34.7,77.4,77.5l-77.4,0.2V835.8z"/>
				<path class="st6" d="M278.6,835.8c42.6,0,77.2,34.7,77.4,77.5l-77.4,0.2V835.8z"/>
			</g>
		</g>
		<g>
			<defs>
				<path id="SVGID_10_" d="M287.5,852.1h45.1c4.1,0,7.4,3.5,7.4,7.8v43.3c0,4.3-3.3,7.8-7.4,7.8h-45.1c-4.1,0-7.4-3.5-7.4-7.8
					v-43.3C280.2,855.6,283.5,852.1,287.5,852.1z"/>
			</defs>
			<clipPath id="SVGID_11_">
				<use xlink:href="#SVGID_10_"  style="overflow:visible;"/>
			</clipPath>
			
				<g id="path5876" sodipodi:cx="95.123322" sodipodi:cy="477.94135" sodipodi:end="1.5681251" sodipodi:rx="23.0602" sodipodi:ry="23.0602" sodipodi:start="0" sodipodi:type="arc" class="st7">
				
					<linearGradient id="SVGID_12_" gradientUnits="userSpaceOnUse" x1="30.2582" y1="594.9986" x2="19.5191" y2="606.6354" gradientTransform="matrix(0 -2.8689 -2.7205 0 1947.348 951.5014)">
					<stop  offset="0" style="stop-color:#8D89C2"/>
					<stop  offset="1" style="stop-color:#FFFFF9;stop-opacity:0.9828"/>
				</linearGradient>
				<path class="st8" d="M279,849.5c34.6,0,62.6,29.5,62.7,66l-62.7,0.2V849.5z"/>
				<path class="st9" d="M279,849.5c34.6,0,62.6,29.5,62.7,66l-62.7,0.2V849.5z"/>
			</g>
		</g>
		<g>
			<defs>
				<path id="SVGID_13_" d="M287.7,852.1h44.9c4.1,0,7.5,3.5,7.5,7.8v43.3c0,4.3-3.4,7.8-7.5,7.8h-44.9c-4.1,0-7.5-3.5-7.5-7.8
					v-43.3C280.2,855.6,283.5,852.1,287.7,852.1z"/>
			</defs>
			<clipPath id="SVGID_14_">
				<use xlink:href="#SVGID_13_"  style="overflow:visible;"/>
			</clipPath>
			
				<g id="path5026" sodipodi:cx="95.123322" sodipodi:cy="477.94135" sodipodi:end="1.5681251" sodipodi:rx="23.0602" sodipodi:ry="23.0602" sodipodi:start="0" sodipodi:type="arc" class="st10">
				
					<linearGradient id="SVGID_15_" gradientUnits="userSpaceOnUse" x1="-6.7252" y1="559.2402" x2="-18.3026" y2="572.3121" gradientTransform="matrix(0 -2.0693 -1.9949 0 1430.9377 861.8115)">
					<stop  offset="0" style="stop-color:#8D89C2"/>
					<stop  offset="1" style="stop-color:#FFFFF9;stop-opacity:0.9828"/>
				</linearGradient>
				<path class="st11" d="M278.5,864.6c25.4,0,45.9,21.3,46,47.6l-46,0.1V864.6z"/>
				<path class="st12" d="M278.5,864.6c25.4,0,45.9,21.3,46,47.6l-46,0.1V864.6z"/>
			</g>
		</g>
		<g>
			<defs>
				<path id="SVGID_16_" d="M287.8,852.1h44.6c4.2,0,7.6,3.5,7.6,7.8v43.3c0,4.3-3.4,7.8-7.6,7.8h-44.6c-4.2,0-7.6-3.5-7.6-7.8
					v-43.3C280.2,855.6,283.6,852.1,287.8,852.1z"/>
			</defs>
			<clipPath id="SVGID_17_">
				<use xlink:href="#SVGID_16_"  style="overflow:visible;"/>
			</clipPath>
			
				<g id="path5849" sodipodi:cx="95.123322" sodipodi:cy="477.94135" sodipodi:end="1.5681251" sodipodi:rx="23.0602" sodipodi:ry="23.0602" sodipodi:start="0" sodipodi:type="arc" class="st13">
				
					<linearGradient id="SVGID_18_" gradientUnits="userSpaceOnUse" x1="-56.8881" y1="517.3937" x2="-71.0191" y2="531.5305" gradientTransform="matrix(0 -1.5205 -1.4915 0 1072.3806 803.3601)">
					<stop  offset="0" style="stop-color:#6F1171"/>
					<stop  offset="1" style="stop-color:#BEA1C7"/>
				</linearGradient>
				<path class="st14" d="M277.9,878.1c19,0,34.3,15.6,34.4,35l-34.4,0.1V878.1z"/>
			</g>
		</g>
		<path id="rect6215-8" class="st15" d="M287.4,851.7h44.3c4.3,0,7.8,3.5,7.8,7.8v43.3c0,4.3-3.5,7.8-7.8,7.8h-44.3
			c-4.3,0-7.8-3.5-7.8-7.8v-43.3C279.6,855.2,283.1,851.7,287.4,851.7z"/>
	</g>
	<g id="text6660" transform="translate(14.238713,-319.25563)">
		
			<linearGradient id="path7641_1_" gradientUnits="userSpaceOnUse" x1="353.8605" y1="109.9934" x2="354.0332" y2="50.9257" gradientTransform="matrix(1 0 0 -1 -124.2825 1049.313)">
			<stop  offset="0" style="stop-color:#3C0F51"/>
			<stop  offset="1" style="stop-color:#BEA1C7"/>
		</linearGradient>
		<path id="path7641" inkscape:connector-curvature="0" class="st16" d="M202.6,978.4v-55.8h16.9l10.1,38.1l10-38.1h16.9v55.8h-10.5
			v-44l-11.1,44h-10.9l-11-44v44H202.6"/>
		
			<linearGradient id="path7643_1_" gradientUnits="userSpaceOnUse" x1="417.902" y1="110.1807" x2="418.0748" y2="51.113" gradientTransform="matrix(1 0 0 -1 -133.7072 1049.5677)">
			<stop  offset="0" style="stop-color:#3C0F51"/>
			<stop  offset="1" style="stop-color:#BEA1C7"/>
		</linearGradient>
		<path id="path7643" inkscape:connector-curvature="0" class="st17" d="M303.4,971.5c2.8,2,5.8,3.6,9,4.7l-4.2,8
			c-1.7-0.5-3.4-1.2-5-2.1c-0.4-0.2-2.9-1.8-7.5-5c-3.7,1.6-7.7,2.4-12.1,2.4c-8.6,0-15.3-2.5-20.2-7.6c-4.8-5.1-7.3-12.1-7.3-21.3
			c0-9.1,2.4-16.2,7.3-21.3c4.9-5.1,11.5-7.6,19.8-7.6c8.3,0,14.8,2.5,19.7,7.6c4.8,5.1,7.3,12.1,7.3,21.3c0,4.8-0.7,9.1-2,12.7
			C307.2,966.2,305.6,968.9,303.4,971.5 M294.3,965.2c1.4-1.7,2.5-3.8,3.2-6.2c0.7-2.4,1.1-5.2,1.1-8.3c0-6.4-1.4-11.3-4.3-14.4
			c-2.8-3.2-6.6-4.8-11.2-4.8c-4.6,0-8.3,1.6-11.2,4.8c-2.8,3.2-4.3,8-4.3,14.4c0,6.5,1.4,11.4,4.3,14.7c2.9,3.2,6.5,4.8,10.9,4.8
			c1.6,0,3.2-0.3,4.6-0.8c-2.3-1.5-4.6-2.7-7-3.5l3.2-6.4C287.4,960.7,290.9,962.6,294.3,965.2"/>
		
			<linearGradient id="path7645_1_" gradientUnits="userSpaceOnUse" x1="470.9844" y1="110.336" x2="471.1572" y2="51.2682" gradientTransform="matrix(1 0 0 -1 -145.1697 1049.313)">
			<stop  offset="0" style="stop-color:#3C0F51"/>
			<stop  offset="1" style="stop-color:#BEA1C7"/>
		</linearGradient>
		<path id="path7645" inkscape:connector-curvature="0" class="st18" d="M320.2,978.4V932h-16.6v-9.4H348v9.4h-16.5v46.4H320.2"/>
		
			<linearGradient id="path7647_1_" gradientUnits="userSpaceOnUse" x1="518.6676" y1="110.4755" x2="518.8404" y2="51.4077" gradientTransform="matrix(1 0 0 -1 -148.7358 1049.313)">
			<stop  offset="0" style="stop-color:#3C0F51"/>
			<stop  offset="1" style="stop-color:#BEA1C7"/>
		</linearGradient>
		<path id="path7647" inkscape:connector-curvature="0" class="st19" d="M364.3,978.4V932h-16.6v-9.4h44.4v9.4h-16.5v46.4H364.3"/>
	</g>
	<g class="st20">
		<path class="st21" d="M392.8,615.5h2.5v2.4h-2.5V615.5z"/>
		<path class="st21" d="M399.4,619.9c1.4,0,2.5,0.2,3.4,0.6c0.7,0.3,1.3,0.7,1.8,1.2c0.5,0.5,0.9,1,1.2,1.6c0.4,0.8,0.5,1.7,0.5,2.7
			c0,1.9-0.6,3.3-1.8,4.5c-1.2,1.1-2.9,1.7-5.1,1.7c-2.1,0-3.8-0.6-5-1.7c-1.2-1.1-1.8-2.6-1.8-4.4c0-1.9,0.6-3.4,1.8-4.5
			C395.6,620.4,397.2,619.9,399.4,619.9z M399.4,622.5c-1.5,0-2.6,0.3-3.4,1c-0.8,0.7-1.2,1.5-1.2,2.5s0.4,1.8,1.2,2.5
			c0.8,0.6,1.9,1,3.5,1c1.5,0,2.7-0.3,3.4-0.9s1.1-1.5,1.1-2.5c0-1-0.4-1.9-1.1-2.5C402.1,622.8,401,622.5,399.4,622.5z"/>
		<path class="st21" d="M392.8,634.1h13.3v5.4c0,1.3-0.1,2.3-0.4,2.9c-0.2,0.6-0.7,1.1-1.3,1.5c-0.6,0.4-1.3,0.5-2.1,0.5
			c-1,0-1.8-0.3-2.5-0.8c-0.7-0.6-1.1-1.4-1.2-2.5c-0.3,0.5-0.7,1-1.1,1.4c-0.4,0.4-1.1,0.8-2.2,1.4l-2.6,1.5v-3l2.9-1.8
			c1-0.7,1.7-1.1,2-1.3c0.3-0.2,0.5-0.5,0.6-0.8c0.1-0.3,0.1-0.7,0.1-1.3v-0.5h-5.5V634.1z M400.5,636.6v1.9c0,1.2,0.1,2,0.2,2.3
			c0.1,0.3,0.3,0.5,0.6,0.7s0.6,0.3,1,0.3c0.4,0,0.8-0.1,1.1-0.3c0.3-0.2,0.4-0.5,0.5-1c0-0.2,0-0.8,0-1.9v-2H400.5z"/>
		<path class="st21" d="M397.7,652.6h2.2v5.5h-5.3c-0.5-0.5-1-1.3-1.4-2.3c-0.4-1-0.6-2-0.6-3.1c0-1.3,0.3-2.5,0.9-3.4
			c0.6-1,1.4-1.7,2.5-2.2c1.1-0.5,2.3-0.7,3.5-0.7c1.4,0,2.6,0.3,3.7,0.8c1.1,0.6,1.9,1.4,2.5,2.4c0.4,0.8,0.7,1.8,0.7,3
			c0,1.6-0.3,2.8-1,3.7c-0.7,0.9-1.6,1.4-2.9,1.7l-0.5-2.5c0.7-0.2,1.2-0.5,1.5-1c0.4-0.5,0.6-1.1,0.6-1.8c0-1.1-0.4-2-1.1-2.7
			c-0.7-0.7-1.8-1-3.3-1c-1.6,0-2.8,0.3-3.6,1c-0.8,0.7-1.2,1.5-1.2,2.6c0,0.5,0.1,1.1,0.3,1.6c0.2,0.5,0.5,1,0.8,1.4h1.7V652.6z"/>
	</g>
</g>
</svg>
