<?xml version="1.0" encoding="utf-8"?>
<!-- Generator: Adobe Illustrator 21.0.2, SVG Export Plug-In . SVG Version: 6.00 Build 0)  -->
<svg version="1.1" id="Layer_1" xmlns="http://www.w3.org/2000/svg" xmlns:xlink="http://www.w3.org/1999/xlink" x="0px" y="0px"
	 viewBox="0 0 303.3 254" style="enable-background:new 0 0 303.3 254;" xml:space="preserve">
<style type="text/css">
	.st0{fill:#001656;}
</style>
<g>
	<g>
		<circle class="st0" cx="151.7" cy="29.3" r="11.6"/>
		
			<ellipse transform="matrix(0.3611 -0.9325 0.9325 0.3611 81.3267 185.5153)" class="st0" cx="176" cy="33.4" rx="11.6" ry="11.6"/>
		<path class="st0" d="M205.8,53.8c-4.3,4.7-11.6,5.1-16.4,0.8c-4.7-4.3-5.1-11.6-0.8-16.4c4.3-4.7,11.6-5.1,16.4-0.8
			C209.8,41.7,210.1,49.1,205.8,53.8z"/>
		
			<ellipse transform="matrix(0.8948 -0.4465 0.4465 0.8948 -6.8336 101.7844)" class="st0" cx="212.5" cy="65.4" rx="11.6" ry="11.6"/>
		<path class="st0" d="M220.9,100.5c-6.4,0.6-12-4.1-12.6-10.5c-0.6-6.4,4.1-12,10.4-12.6c6.4-0.6,12,4.1,12.6,10.4
			C231.9,94.3,227.2,99.9,220.9,100.5z"/>
		<path class="st0" d="M214.8,124.8c-6.2-1.7-9.7-8.1-8-14.3c1.7-6.1,8.1-9.7,14.3-8c6.2,1.7,9.7,8.1,8,14.3
			C227.4,122.9,221,126.5,214.8,124.8z"/>
		<path class="st0" d="M200.5,145.2c-5.1-3.8-6.1-11.1-2.3-16.2c3.8-5.1,11.1-6.1,16.2-2.3c5.1,3.8,6.1,11.1,2.3,16.2
			C212.9,148,205.6,149,200.5,145.2z"/>
		<path class="st0" d="M179.7,159.1c-3.4-5.4-1.7-12.6,3.7-15.9c5.4-3.4,12.6-1.7,15.9,3.7c3.4,5.4,1.7,12.6-3.7,15.9
			C190.3,166.1,183.1,164.5,179.7,159.1z"/>
		<path class="st0" d="M155.4,164.5c-1.2-6.3,2.9-12.3,9.2-13.5c6.3-1.2,12.3,2.9,13.5,9.2c1.2,6.3-2.9,12.3-9.2,13.5
			C162.6,174.9,156.6,170.8,155.4,164.5z"/>
		<path class="st0" d="M130.7,160.8c1.2-6.3,7.2-10.4,13.5-9.3c6.3,1.2,10.4,7.2,9.3,13.5c-1.2,6.3-7.2,10.4-13.5,9.3
			C133.7,173.1,129.5,167.1,130.7,160.8z"/>
		<path class="st0" d="M109,148.4c3.4-5.4,10.5-7.1,15.9-3.8c5.4,3.4,7.1,10.5,3.8,15.9c-3.4,5.4-10.5,7.1-15.9,3.8
			C107.3,161,105.6,153.8,109,148.4z"/>
		<path class="st0" d="M93.2,129c5.1-3.9,12.4-2.9,16.2,2.2c3.9,5.1,2.9,12.4-2.2,16.2c-5.1,3.9-12.3,2.9-16.2-2.2
			C87.2,140.2,88.2,132.9,93.2,129z"/>
		
			<ellipse transform="matrix(0.9609 -0.2769 0.2769 0.9609 -28.758 29.1295)" class="st0" cx="88.8" cy="116.4" rx="11.6" ry="11.6"/>
		<path class="st0" d="M87,80.3c6.4,0.6,11.1,6.2,10.5,12.6c-0.6,6.4-6.2,11.1-12.6,10.5c-6.4-0.6-11.1-6.2-10.5-12.6
			C75,84.5,80.6,79.8,87,80.3z"/>
		<path class="st0" d="M97.3,57.6c5.7,2.8,8.1,9.8,5.3,15.5c-2.8,5.7-9.8,8.1-15.5,5.3c-5.7-2.8-8.1-9.8-5.3-15.5
			C84.6,57.1,91.5,54.8,97.3,57.6z"/>
		<path class="st0" d="M115.1,40.1c4.3,4.7,4,12-0.7,16.4c-4.7,4.3-12,4-16.4-0.7c-4.3-4.7-4-12,0.7-16.4
			C103.4,35.1,110.7,35.4,115.1,40.1z"/>
		<path class="st0" d="M138,30.2c2.3,6-0.6,12.7-6.5,15c-6,2.3-12.7-0.6-15-6.5c-2.3-6,0.6-12.7,6.6-15
			C128.9,21.3,135.7,24.3,138,30.2z"/>
		<path class="st0" d="M149.8,50.4c1.9,4.7-0.5,10.1-5.2,11.9c-4.7,1.9-10.1-0.5-11.9-5.2c-1.9-4.7,0.5-10.1,5.2-11.9
			C142.6,43.3,148,45.6,149.8,50.4z"/>
		<path class="st0" d="M170.1,53.5c-0.3,5.1-4.7,8.9-9.8,8.5c-5.1-0.4-8.9-4.8-8.5-9.8c0.4-5.1,4.8-8.9,9.8-8.5
			C166.6,44,170.4,48.4,170.1,53.5z"/>
		<path class="st0" d="M187,65c-2.5,4.4-8.1,6-12.5,3.5c-4.4-2.5-6-8.1-3.5-12.5c2.5-4.4,8.1-6,12.5-3.5C187.9,55,189.5,60.6,187,65
			z"/>
		<path class="st0" d="M197.3,82.7c-4.2,2.9-9.9,1.9-12.8-2.2c-2.9-4.2-1.9-9.9,2.2-12.8c4.2-2.9,9.9-1.9,12.8,2.2
			C202.5,74.1,201.5,79.8,197.3,82.7z"/>
		<path class="st0" d="M199,103.1c-5,0.9-9.8-2.5-10.6-7.5c-0.9-5,2.5-9.8,7.5-10.6c5-0.9,9.8,2.5,10.6,7.5
			C207.4,97.5,204.1,102.3,199,103.1z"/>
		
			<ellipse transform="matrix(0.2716 -0.9624 0.9624 0.2716 32.378 269.6588)" class="st0" cx="194.3" cy="113.4" rx="9.2" ry="9.2"/>
		<path class="st0" d="M177.1,136.5c-3.8-3.3-4.2-9.2-0.9-13c3.4-3.8,9.2-4.2,13-0.9c3.8,3.4,4.2,9.2,0.9,13
			C186.7,139.5,180.9,139.9,177.1,136.5z"/>
		<path class="st0" d="M157.7,143c-2-4.7,0.1-10.1,4.8-12.1c4.7-2,10.1,0.1,12.1,4.8c2,4.7-0.1,10.1-4.8,12.1
			C165.1,149.8,159.7,147.7,157.7,143z"/>
		<path class="st0" d="M137.3,140.5c0.2-5.1,4.5-9,9.5-8.9c5.1,0.2,9,4.5,8.9,9.5c-0.2,5.1-4.5,9-9.5,8.9
			C141.1,149.9,137.2,145.6,137.3,140.5z"/>
		<path class="st0" d="M120,129.6c2.3-4.5,7.9-6.3,12.4-3.9c4.5,2.4,6.3,7.9,3.9,12.4c-2.3,4.5-7.9,6.3-12.4,3.9
			C119.4,139.6,117.7,134.1,120,129.6z"/>
		<path class="st0" d="M109.1,112.2c4.1-3.1,9.8-2.3,12.9,1.8c3.1,4.1,2.3,9.8-1.8,12.9c-4.1,3.1-9.8,2.3-12.9-1.8
			C104.3,121.1,105.1,115.3,109.1,112.2z"/>
		<path class="st0" d="M106.3,91.1c5-1,9.8,2.2,10.9,7.2c1,5-2.2,9.8-7.2,10.9c-5,1-9.8-2.2-10.9-7.2C98.1,97,101.4,92.1,106.3,91.1
			z"/>
		<path class="st0" d="M113.9,71.1c4.9,1.2,8,6.2,6.7,11.1c-1.2,4.9-6.2,8-11.1,6.7c-4.9-1.2-7.9-6.2-6.7-11.1
			C104,72.9,109,69.9,113.9,71.1z"/>
		<path class="st0" d="M129.2,56.4c3.9,3.2,4.5,9,1.3,12.9c-3.2,3.9-9,4.5-12.9,1.3c-3.9-3.2-4.5-9-1.3-13
			C119.4,53.8,125.2,53.2,129.2,56.4z"/>
		<path class="st0" d="M146,70.5c1.1,3.3-0.6,7-4,8.1c-3.3,1.1-7-0.6-8.1-4c-1.1-3.3,0.7-7,4-8.1C141.3,65.4,144.9,67.2,146,70.5z"
			/>
		<path class="st0" d="M161.1,70.8c-0.8,3.4-4.3,5.5-7.7,4.7c-3.4-0.8-5.5-4.3-4.7-7.7c0.8-3.4,4.3-5.5,7.7-4.7
			C159.9,63.9,161.9,67.4,161.1,70.8z"/>
		<path class="st0" d="M173.7,79.1c-2.5,2.4-6.6,2.3-9-0.2c-2.4-2.5-2.3-6.6,0.2-9c2.5-2.4,6.6-2.3,9,0.2
			C176.3,72.6,176.2,76.7,173.7,79.1z"/>
		<path class="st0" d="M179.8,92.9c-3.5,0.7-6.8-1.6-7.5-5c-0.7-3.5,1.6-6.8,5-7.5c3.5-0.7,6.8,1.6,7.5,5
			C185.5,88.9,183.2,92.2,179.8,92.9z"/>
		<path class="st0" d="M177.5,107.8c-3.3-1.3-4.9-5-3.6-8.3c1.3-3.3,5-4.9,8.3-3.6c3.3,1.3,4.9,5,3.6,8.3
			C184.5,107.5,180.8,109.1,177.5,107.8z"/>
		<path class="st0" d="M167.6,119.1c-2.1-2.8-1.5-6.8,1.4-8.9c2.9-2.1,6.8-1.4,8.9,1.4c2.1,2.8,1.4,6.8-1.4,8.9
			C173.7,122.6,169.7,122,167.6,119.1z"/>
		<path class="st0" d="M153.1,123.4c-0.2-3.5,2.5-6.5,6-6.8c3.5-0.2,6.5,2.5,6.8,6c0.2,3.5-2.5,6.5-6,6.8
			C156.4,129.6,153.4,126.9,153.1,123.4z"/>
		<path class="st0" d="M138.7,119.2c1.7-3.1,5.6-4.2,8.7-2.5c3.1,1.7,4.2,5.6,2.5,8.7c-1.7,3.1-5.6,4.2-8.7,2.5
			C138.1,126.1,137,122.3,138.7,119.2z"/>
		<path class="st0" d="M128.7,107.8c3.1-1.7,7-0.5,8.6,2.6c1.7,3.1,0.5,7-2.6,8.6c-3.1,1.7-7,0.5-8.7-2.6
			C124.5,113.4,125.6,109.5,128.7,107.8z"/>
		<path class="st0" d="M126.4,92.9c3.5,0.2,6.2,3.3,5.9,6.8c-0.2,3.5-3.3,6.2-6.8,5.9c-3.5-0.2-6.2-3.3-5.9-6.8
			C119.9,95.3,122.9,92.7,126.4,92.9z"/>
		<path class="st0" d="M132.5,79.1c2.8,2.1,3.4,6.1,1.3,8.9c-2.1,2.8-6.1,3.4-8.9,1.3c-2.8-2.1-3.4-6.1-1.3-8.9
			C125.7,77.6,129.7,77,132.5,79.1z"/>
		<path class="st0" d="M148.2,83.5c2.3,1.9,2.6,5.2,0.7,7.5c-1.9,2.3-5.2,2.6-7.5,0.8c-2.3-1.9-2.6-5.2-0.7-7.5
			C142.5,82,145.9,81.6,148.2,83.5z"/>
		<path class="st0" d="M162,85.7c-0.5,2.9-3.2,4.9-6.1,4.4c-2.9-0.5-4.9-3.2-4.4-6.1c0.5-2.9,3.2-4.9,6.1-4.4
			C160.5,80.1,162.5,82.8,162,85.7z"/>
		
			<ellipse transform="matrix(0.9362 -0.3514 0.3514 0.9362 -22.4523 63.9971)" class="st0" cx="165.1" cy="93.9" rx="5.3" ry="5.3"/>
		<path class="st0" d="M158.1,109.7c-2.3-1.9-2.6-5.2-0.7-7.5c1.9-2.3,5.2-2.6,7.5-0.7c2.3,1.9,2.6,5.2,0.7,7.5
			C163.7,111.2,160.4,111.6,158.1,109.7z"/>
		<path class="st0" d="M144.3,107.4c0.5-2.9,3.2-4.9,6.1-4.4c2.9,0.5,4.9,3.2,4.4,6.1c-0.5,2.9-3.2,4.8-6.1,4.4
			C145.7,113,143.8,110.3,144.3,107.4z"/>
		<path class="st0" d="M139.3,94.3c2.8-1,5.8,0.4,6.8,3.1c1,2.8-0.4,5.8-3.1,6.8c-2.8,1-5.8-0.4-6.8-3.1
			C135.2,98.4,136.6,95.3,139.3,94.3z"/>
		<path class="st0" d="M156,93.1c2,1.6,2.2,4.5,0.6,6.4c-1.6,1.9-4.5,2.2-6.4,0.6c-1.9-1.6-2.2-4.5-0.6-6.4
			C151.2,91.8,154.1,91.5,156,93.1z"/>
	</g>
	<path class="st0" d="M40.4,226.7c-0.7,2.5-1.3,5.1-1.9,7.7c-2.3,0.4-4.3,0.7-6.2,0.9c-1.9,0.2-3.4,0.3-4.8,0.3
		c-2.9,0-5.6-0.5-8.2-1.4c-2.6-0.9-4.8-2.3-6.7-4.3c-1.9-2-3.2-4.3-3.8-7.1C8.1,220,8,217,8.3,213.7c0.4-3.6,1.3-6.9,2.8-9.9
		c1.5-3,3.4-5.6,5.8-7.7c2.4-2.1,5.1-3.6,8.1-4.7c3-1,6.1-1.5,9.3-1.5c3.1,0,6.5,0.4,10.2,1.2c-0.1,1.9-0.2,3.3-0.3,4.1l-0.2,3.5
		c-2.1-0.6-3.9-1.1-5.3-1.3c-1.4-0.2-2.8-0.4-4.1-0.4c-2.1,0-4.1,0.4-6.1,1c-2,0.7-3.8,1.8-5.4,3.3c-1.6,1.5-3,3.4-4,5.6
		c-1,2.2-1.7,4.4-1.9,6.8c-0.3,2.8-0.1,5.3,0.6,7.5c0.7,2.2,2.1,4,4.1,5.4c2,1.4,4.6,2.1,7.7,2.1C32.6,228.6,36.2,228,40.4,226.7
		L40.4,226.7z M73.1,189.9c2.9,0,5.6,0.4,8.2,1.3c2.6,0.9,4.8,2.3,6.6,4.3c1.8,2,3.1,4.3,3.9,7c0.8,2.7,0.9,5.8,0.6,9.3
		c-0.4,3.3-1.2,6.5-2.5,9.5c-1.3,3-3.1,5.6-5.5,7.8c-2.3,2.2-5,3.8-8.1,4.9c-3.1,1.1-6.3,1.6-9.6,1.6c-3.1,0-6-0.5-8.8-1.5
		c-2.8-1-5-2.5-6.9-4.6c-1.8-2.1-3.1-4.4-3.7-7.1c-0.6-2.7-0.7-5.6-0.4-8.7c0.4-3.4,1.3-6.7,2.7-9.8c1.5-3.1,3.4-5.7,5.8-7.8
		c2.4-2,5.1-3.6,8.1-4.7C66.6,190.4,69.8,189.9,73.1,189.9L73.1,189.9z M71.9,196.8c-2.9,0-5.6,0.8-7.9,2.3
		c-2.3,1.5-4.2,3.5-5.6,6.1c-1.4,2.6-2.2,5.4-2.6,8.4c-0.3,2.8-0.1,5.4,0.7,7.7c0.8,2.4,2.2,4.2,4.3,5.4c2.1,1.2,4.4,1.9,6.9,1.9
		c1.9,0,3.8-0.4,5.6-1.1c1.8-0.7,3.5-1.8,4.9-3.3c1.4-1.5,2.6-3.3,3.4-5.4c0.9-2.1,1.4-4.3,1.7-6.6c0.2-2.1,0.2-4.2-0.2-6.1
		c-0.4-2-1.1-3.7-2.1-5.1c-1.1-1.4-2.4-2.5-4-3.1C75.5,197.1,73.8,196.8,71.9,196.8L71.9,196.8z M95.4,234.8c0.8-3.9,1.6-8.2,2.3-13
		l2.4-15.8c0.8-5.7,1.5-10.8,2-15.3c2.3,0,4.2,0.1,5.7,0.1c1.2,0,2.9,0,5.1-0.1c1.7,4.3,4.1,9.8,7.3,16.6c3.1,6.8,5.6,12.5,7.5,17
		l4.4-30c0.1-0.7,0.2-1.9,0.4-3.6c1.8,0,3.2,0.1,4.1,0.1c0.4,0,1.7,0,4.1-0.1l-2,11.9l-3.1,20.3l-1.6,12c-2,0-3.7-0.1-5.2-0.1
		c-1.1,0-3,0-5.5,0.1c-0.8-1.9-1.3-3.3-1.7-4.3c-0.6-1.4-2-4.4-4.1-8.8c-1.4-2.9-3.1-6.7-5.2-11.3c-1.5-3.4-2.8-6.3-3.9-8.8
		c-0.5,3.5-1.5,10-2.9,19.4c-0.5,3.9-1.2,8.4-1.8,13.7c-1.8,0-3.1-0.1-3.9-0.1C99,234.7,97.6,234.7,95.4,234.8L95.4,234.8z
		 M137,234.8c2.5,0,4.1-0.1,5-0.1l4.7,0.1c2.7-5.3,5.5-10.6,8.3-15.7h15.3c0.5,2,1,4.7,1.7,7.9c0.6,3.3,1.1,5.8,1.4,7.8
		c2.4,0,4.1-0.1,5.1-0.1l4.4,0.1l-0.9-3.6l-6.1-27.4l-2.7-13.2c-1.8,0-3.6,0.1-5.4,0.1c-1,0-2.8,0-5.3-0.1c-2,3.7-4.4,8.1-7.4,13.1
		l-9.4,16.3C142.4,225.9,139.5,230.8,137,234.8L137,234.8z M158.5,212.4l5.3-9.5l2.9-5.4l2.9,14.9H158.5L158.5,212.4z M220.5,226.7
		c-0.7,2.5-1.4,5.1-1.9,7.7c-2.3,0.4-4.3,0.7-6.2,0.9c-1.9,0.2-3.4,0.3-4.8,0.3c-2.9,0-5.6-0.5-8.2-1.4c-2.6-0.9-4.8-2.3-6.7-4.3
		c-1.9-2-3.2-4.3-3.8-7.1c-0.7-2.8-0.8-5.8-0.4-9.1c0.4-3.6,1.3-6.9,2.8-9.9c1.5-3,3.4-5.6,5.8-7.7c2.4-2.1,5.1-3.6,8.1-4.7
		c3-1,6.1-1.5,9.3-1.5c3.1,0,6.5,0.4,10.2,1.2c-0.1,1.9-0.2,3.3-0.3,4.1l-0.2,3.5c-2.1-0.6-3.9-1.1-5.3-1.3
		c-1.4-0.2-2.8-0.4-4.1-0.4c-2.1,0-4.1,0.4-6.1,1c-2,0.7-3.8,1.8-5.4,3.3c-1.6,1.5-3,3.4-4,5.6c-1,2.2-1.7,4.4-1.9,6.8
		c-0.3,2.8-0.1,5.3,0.6,7.5c0.7,2.2,2.1,4,4.1,5.4c2,1.4,4.6,2.1,7.7,2.1C212.8,228.6,216.3,228,220.5,226.7L220.5,226.7z
		 M233.9,234.8c0.5-2.4,1.1-5.5,1.7-9.4c0.7-3.9,1.1-6.9,1.4-9.2l-10.3-25.6c2.2,0,3.9,0.1,5.1,0.1c1.2,0,2.7,0,4.7-0.1
		c0.6,2.2,1.6,5.1,2.9,8.5c1.3,3.4,2.4,6.6,3.3,9.5l10.3-15.5c0.3-0.5,0.9-1.4,1.5-2.5c1.9,0,3.5,0.1,5,0.1c0.8,0,2.3,0,4.7-0.1
		l-18.7,26.2l-1.2,8.2c-0.4,2.4-0.8,5.7-1.3,9.7c-2.1,0-3.6-0.1-4.5-0.1C237.5,234.7,236,234.7,233.9,234.8L233.9,234.8z
		 M269.2,234.8c2.7,0,4.3-0.1,4.8-0.1l4.4,0.1c0.2-1.7,0.4-3.3,0.6-4.9l0.5-3.8l3.3-22.7l1-5.9h2.2c3.2,0,6.6,0.1,10.1,0.3
		c0.2-1.7,0.5-4,1.1-7.1l-5.6,0l-10.5,0c-6.1,0-12,0-17.5-0.1c-0.2,1.6-0.5,4-1,7.1l6.7-0.2l1.8,0l1.9,0h2l-1.9,13.8l-2.2,14.1
		L269.2,234.8z"/>
</g>
</svg>
