<?xml version="1.0" encoding="utf-8"?>
<!-- Generator: Adobe Illustrator 21.0.2, SVG Export Plug-In . SVG Version: 6.00 Build 0)  -->
<svg version="1.1" id="Layer_1" xmlns="http://www.w3.org/2000/svg" xmlns:xlink="http://www.w3.org/1999/xlink" x="0px" y="0px"
	 viewBox="0 0 263 304.7" style="enable-background:new 0 0 263 304.7;" xml:space="preserve">
<style type="text/css">
	
		.st0{fill-rule:evenodd;clip-rule:evenodd;fill:none;stroke:#9B9B8C;stroke-linecap:round;stroke-linejoin:round;stroke-miterlimit:10;}
	.st1{fill:none;stroke:#9E8B00;stroke-width:7;stroke-miterlimit:10;}
	.st2{fill:none;stroke:#D9C700;stroke-width:7;stroke-miterlimit:10;}
	.st3{fill:none;stroke:#000000;stroke-width:4;stroke-miterlimit:10;}
	.st4{fill:#214478;stroke:#005F93;stroke-miterlimit:10;}
	.st5{fill:#FFFFFF;}
	.st6{fill:#D4AA00;stroke:#99883D;stroke-width:0.5;stroke-miterlimit:10;}
	.st7{fill:#FFFFFF;stroke:#99883D;stroke-width:0.5;stroke-miterlimit:10;}
	.st8{fill:#5B5B5B;}
	.st9{fill:#E6E6E6;stroke:#595959;stroke-width:6;stroke-miterlimit:10;}
	.st10{fill:#CCCCCC;}
	.st11{fill:#263740;}
	.st12{fill:#CC584C;}
	.st13{fill:#F5F5F5;}
	.st14{fill:#96E652;}
	.st15{fill:#242424;}
	.st16{fill:#E78244;}
	.st17{fill:#1E2C33;}
</style>
<line class="st0" x1="75" y1="225.5" x2="75" y2="282.5"/>
<path class="st1" d="M94.5,51.9c0,0,49.2-12.5,47.3,67.5"/>
<path class="st2" d="M93.5,53.9c0,0,49.2-12.5,47.3,67.5"/>
<path class="st3" d="M82.5,71.9H42.2c-6.6,0-12-5.4-12-12V37.7c0-6.6,5.4-12,12-12h40.3c6.6,0,12,5.4,12,12v22.2
	C94.5,66.5,89.1,71.9,82.5,71.9z"/>
<path class="st4" d="M47.6,45c0,0,0.9-7.2,9.6-10.3c0,0,8.5-2.5,14.5,4.8c0,0,8.2-0.9,11.6,5.6s0.5,10.6,0.5,10.6s-2.3,5.3-9.2,6.4
	H47c0,0-7.9,0-7.9-9.4C39.1,52.6,39.8,45,47.6,45z"/>
<circle class="st5" cx="62" cy="49.3" r="11.6"/>
<circle class="st6" cx="62.2" cy="49.3" r="9.2"/>
<path class="st7" d="M61.2,42.5c0,0-2.7,7.2-2.7,7.3s2.3-0.2,2.3-0.2L59.3,57l6.9-10l-2.5,0.1l2.6-5L61.2,42.5z"/>
<circle class="st5" cx="69.8" cy="46.9" r="0.4"/>
<path class="st5" d="M69.3,47.4c0,0,1.9,2,0.2,5.9c0,0,1.8-2.1,1.1-6.1C70.5,47.3,70.1,47.8,69.3,47.4z"/>
<circle class="st5" cx="54.5" cy="51.8" r="0.4"/>
<path class="st5" d="M55,51.3c0,0-1.9-2-0.2-5.9c0,0-1.8,2.1-1.1,6.1C53.8,51.5,54.2,50.9,55,51.3z"/>
<rect x="71.3" y="53.2" transform="matrix(0.9261 0.3772 -0.3772 0.9261 26.1789 -23.9165)" class="st5" width="5.7" height="3.3"/>
<path class="st5" d="M78.9,54.1c-1.5-0.7-2.6,0.1-2.6,0.1l-0.7,1.2c-1.5,2.4,1.2,3.5,1.2,3.5l3,1.1c0,0,2.3-1.3,4-4.2"/>
<g>
	<path d="M16.8,281.3c0.3-4.5,1.3-8.4,3.2-11.8c1.8-3.4,4.7-6.6,8.5-9.7c1.2-0.9,3-2.2,5.5-3.9c2.5-1.7,4.2-2.9,5.3-3.8
		c1.9-1.5,3.3-3.1,4.2-4.7c0.9-1.6,1.4-3.2,1.4-4.9c0-2.4-0.6-4.3-1.8-5.7c-1.2-1.3-2.9-2-5.1-2c-2.5,0-4.3,0.9-5.6,2.6
		c-1.3,1.7-1.9,4.3-1.9,7.8l-13.1,0c0.1-6.4,1.9-11.6,5.7-15.4c3.7-3.8,8.7-5.7,14.9-5.7c6.2,0,11.2,1.7,15,5
		c3.8,3.3,5.7,7.6,5.7,13c0,3-0.6,5.7-1.8,8.2c-1.2,2.5-3.2,5-6.1,7.7c-1.5,1.4-4,3.3-7.6,5.8c-3.6,2.5-6.1,4.6-7.6,6.3h22.6v11.2
		H16.8z"/>
</g>
<g>
	<path class="st8" d="M95.6,237v3.6c-1.6-1-3-1.4-4.2-1.4c-1.2,0-2.2,0.4-2.9,1.2s-1.1,1.9-1.1,3.3c0,1.3,0.4,2.4,1.1,3.2
		c0.8,0.8,1.8,1.2,3.1,1.2c1.1,0,2.4-0.4,4-1.3v3.6c-1.7,0.6-3.2,0.9-4.4,0.9c-2,0-3.7-0.7-5.1-2.2c-1.4-1.5-2.1-3.3-2.1-5.4
		c0-2.1,0.7-4,2.1-5.5c1.4-1.5,3.1-2.2,5.2-2.2C92.7,236,94.1,236.4,95.6,237z"/>
	<path class="st8" d="M97.5,243.7c0-2.2,0.7-4,2.2-5.4c1.5-1.4,3.2-2.1,5.2-2.1c2.2,0,4,0.7,5.5,2.2s2.2,3.3,2.2,5.4
		c0,2.2-0.7,4-2.1,5.4c-1.4,1.4-3.2,2.2-5.4,2.2c-2.2,0-3.9-0.7-5.3-2.1C98.2,247.7,97.5,245.9,97.5,243.7z M105,239.1
		c-1.2,0-2.2,0.4-3,1.3s-1.1,2-1.1,3.4c0,1.3,0.4,2.4,1.2,3.3s1.8,1.3,2.9,1.3c1.2,0,2.2-0.4,3-1.3c0.8-0.9,1.1-2,1.1-3.4
		c0-1.4-0.4-2.5-1.1-3.3C107.2,239.5,106.2,239.1,105,239.1z"/>
	<path class="st8" d="M125,236.2h3.1v14.8H125l-6.8-9.6v9.6H115v-14.8h3.2l6.8,9.5V236.2z"/>
	<path class="st8" d="M131.1,236.2h8.4v2.9h-5.2v3h5.2v2.9h-5.2v3.1h5.2v2.9h-8.4V236.2z"/>
	<path class="st8" d="M153.3,237v3.6c-1.6-1-3-1.4-4.2-1.4s-2.2,0.4-2.9,1.2s-1.1,1.9-1.1,3.3c0,1.3,0.4,2.4,1.1,3.2
		s1.8,1.2,3.1,1.2c1.1,0,2.5-0.4,4-1.3v3.6c-1.7,0.6-3.2,0.9-4.4,0.9c-2,0-3.7-0.7-5.1-2.2c-1.4-1.5-2.1-3.3-2.1-5.4
		c0-2.1,0.7-4,2.1-5.5c1.4-1.5,3.1-2.2,5.2-2.2C150.4,236,151.8,236.4,153.3,237z"/>
	<path class="st8" d="M154.7,236.2h10v3.2h-3.4v11.7H158v-11.7h-3.4V236.2z"/>
	<path class="st8" d="M170.3,236.2h2.5l6,14.8h-3.2l-1.2-2.9h-5.7l-1.2,2.9h-3.2L170.3,236.2z M171.5,241.1l-1.7,4.4h3.5
		L171.5,241.1z"/>
	<path class="st8" d="M187.3,236.2h8.4v2.9h-5.2v3h5.2v2.9h-5.2v3.1h5.2v2.9h-8.4V236.2z"/>
	<path class="st8" d="M198.4,236.2h3.2v11.6h4.4v3.2h-7.6V236.2z"/>
	<path class="st8" d="M95.6,260v3.6c-1.6-1-3-1.4-4.2-1.4c-1.2,0-2.2,0.4-2.9,1.2s-1.1,1.9-1.1,3.3c0,1.3,0.4,2.4,1.1,3.2
		c0.8,0.8,1.8,1.2,3.1,1.2c1.1,0,2.4-0.4,4-1.3v3.6c-1.7,0.6-3.2,0.9-4.4,0.9c-2,0-3.7-0.7-5.1-2.2c-1.4-1.5-2.1-3.3-2.1-5.4
		c0-2.1,0.7-4,2.1-5.5c1.4-1.5,3.1-2.2,5.2-2.2C92.7,259,94.1,259.4,95.6,260z"/>
	<path class="st8" d="M97.5,266.7c0-2.2,0.7-4,2.2-5.4c1.5-1.4,3.2-2.1,5.2-2.1c2.2,0,4,0.7,5.5,2.2s2.2,3.3,2.2,5.4
		c0,2.2-0.7,4-2.1,5.4c-1.4,1.4-3.2,2.2-5.4,2.2c-2.2,0-3.9-0.7-5.3-2.1C98.2,270.7,97.5,268.9,97.5,266.7z M105,262.1
		c-1.2,0-2.2,0.4-3,1.3s-1.1,2-1.1,3.4c0,1.3,0.4,2.4,1.2,3.3s1.8,1.3,2.9,1.3c1.2,0,2.2-0.4,3-1.3c0.8-0.9,1.1-2,1.1-3.4
		c0-1.4-0.4-2.5-1.1-3.3C107.2,262.5,106.2,262.1,105,262.1z"/>
	<path class="st8" d="M125,259.2h3.1v14.8H125l-6.8-9.6v9.6H115v-14.8h3.2l6.8,9.5V259.2z"/>
	<path class="st8" d="M142.2,260v3.6c-1.6-1-3-1.4-4.2-1.4s-2.2,0.4-2.9,1.2s-1.1,1.9-1.1,3.3c0,1.3,0.4,2.4,1.1,3.2
		s1.8,1.2,3.1,1.2c1.1,0,2.5-0.4,4-1.3v3.6c-1.7,0.6-3.2,0.9-4.4,0.9c-2,0-3.7-0.7-5.1-2.2c-1.4-1.5-2.1-3.3-2.1-5.4
		c0-2.1,0.7-4,2.1-5.5c1.4-1.5,3.1-2.2,5.2-2.2C139.3,259,140.7,259.4,142.2,260z"/>
	<path class="st8" d="M144.6,259.2h8.4v2.9h-5.2v3h5.2v2.9h-5.2v3.1h5.2v2.9h-8.4V259.2z"/>
	<path class="st8" d="M165.5,259.2h3.1v14.8h-3.1l-6.8-9.6v9.6h-3.2v-14.8h3.2l6.8,9.5V259.2z"/>
	<path class="st8" d="M170.6,259.2h10v3.2h-3.4v11.7H174v-11.7h-3.4V259.2z"/>
	<path class="st8" d="M182.7,259.2h4.9c1.5,0,2.7,0.4,3.5,1.2c0.9,0.8,1.3,1.8,1.3,3.2c0,0.8-0.2,1.6-0.6,2.4s-1.1,1.5-2.2,1.9
		l4.2,6.2h-3.7l-3.8-5.7h-0.4v5.7h-3.2V259.2z M185.9,261.9v3.9h0.7c1.7,0,2.5-0.7,2.5-2c0-0.6-0.2-1-0.7-1.3
		c-0.4-0.3-1-0.5-1.8-0.5H185.9z"/>
	<path class="st8" d="M201.4,259.2h2.5l6,14.8h-3.2l-1.2-2.9h-5.7l-1.2,2.9h-3.2L201.4,259.2z M202.6,264.1l-1.7,4.4h3.5
		L202.6,264.1z"/>
	<path class="st8" d="M212.1,259.2h5.1c2.2,0,3.9,0.7,5.2,2s2,3.2,2,5.4c0,2.2-0.7,4-2,5.4c-1.4,1.3-3.2,2-5.4,2h-4.8V259.2z
		 M215.3,262.1v9.2h1.3c1.3,0,2.4-0.4,3.2-1.1c0.8-0.7,1.3-1.9,1.3-3.6c0-1-0.2-1.8-0.6-2.6s-1-1.3-1.8-1.5
		c-0.8-0.3-1.5-0.4-2.2-0.4H215.3z"/>
	<path class="st8" d="M226.3,266.7c0-2.2,0.7-4,2.2-5.4c1.5-1.4,3.2-2.1,5.2-2.1c2.2,0,4,0.7,5.5,2.2c1.4,1.4,2.2,3.3,2.2,5.4
		c0,2.2-0.7,4-2.1,5.4c-1.4,1.4-3.2,2.2-5.4,2.2c-2.2,0-3.9-0.7-5.3-2.1C227,270.7,226.3,268.9,226.3,266.7z M233.8,262.1
		c-1.2,0-2.2,0.4-3,1.3c-0.8,0.9-1.1,2-1.1,3.4c0,1.3,0.4,2.4,1.2,3.3s1.8,1.3,2.9,1.3c1.2,0,2.2-0.4,3-1.3c0.8-0.9,1.1-2,1.1-3.4
		c0-1.4-0.4-2.5-1.1-3.3S235.1,262.1,233.8,262.1z"/>
	<path class="st8" d="M243.9,259.2h4.9c1.5,0,2.7,0.4,3.5,1.2c0.9,0.8,1.3,1.8,1.3,3.2c0,0.8-0.2,1.6-0.6,2.4s-1.1,1.5-2.2,1.9
		l4.2,6.2h-3.7l-3.8-5.7h-0.4v5.7h-3.2V259.2z M247.2,261.9v3.9h0.7c1.7,0,2.5-0.7,2.5-2c0-0.6-0.2-1-0.7-1.3
		c-0.4-0.3-1-0.5-1.8-0.5H247.2z"/>
</g>
<path class="st9" d="M233.9,163.4c0,4.5-3.6,8.1-8.1,8.1H51.5c-4.5,0-8.1-3.6-8.1-8.1v-36.5c0-4.5,3.6-8.1,8.1-8.1h174.2
	c4.5,0,8.1,3.6,8.1,8.1V163.4z"/>
<rect x="45.8" y="124.3" class="st10" width="184.9" height="42.7"/>
<rect x="40.5" y="131.4" class="st11" width="195.7" height="28.5"/>
<circle class="st12" cx="221.7" cy="145.1" r="2"/>
<circle class="st13" cx="201.4" cy="145.1" r="2"/>
<circle class="st14" cx="195.4" cy="145.1" r="2"/>
<circle class="st13" cx="189.3" cy="145.1" r="2"/>
<circle class="st15" cx="183.2" cy="145.1" r="2"/>
<g>
	<circle class="st14" cx="177.1" cy="145.1" r="2"/>
	<circle class="st14" cx="171.1" cy="145.1" r="2"/>
</g>
<g>
	<circle class="st16" cx="59.8" cy="153.9" r="4"/>
	<path class="st16" d="M59.8,141.9c-3.2,0-6.2,1.3-8.5,3.5c-0.8,0.8-0.8,2.1,0,2.8c0.8,0.8,2.1,0.8,2.8,0c1.5-1.5,3.5-2.3,5.7-2.3
		c2.1,0,4.2,0.8,5.7,2.3c0.4,0.4,0.9,0.6,1.4,0.6c0.5,0,1-0.2,1.4-0.6c0.8-0.8,0.8-2.1,0-2.8C66,143.2,63,141.9,59.8,141.9z"/>
	<path class="st16" d="M73.9,139.8c-3.8-3.8-8.8-5.9-14.2-5.9c0,0,0,0,0,0c-5.4,0-10.4,2.1-14.2,5.9c-0.8,0.8-0.8,2.1,0,2.8
		c0.8,0.8,2.1,0.8,2.8,0c3-3,7.1-4.7,11.3-4.7c0,0,0,0,0,0c4.3,0,8.3,1.7,11.3,4.7c0.4,0.4,0.9,0.6,1.4,0.6c0.5,0,1-0.2,1.4-0.6
		C74.7,141.8,74.7,140.6,73.9,139.8z"/>
</g>
<path class="st15" d="M201,116.3v-7.1c0-1.3-1.1-2.4-2.4-2.4h-18.8c-1.3,0-2.4,1.1-2.4,2.4v7.1H201z"/>
<g>
	<path class="st11" d="M195.4,110.7V70.2c0-1.1-0.9-2-2-2h-8.1c-1.1,0-2,0.9-2,2v40.5H195.4z"/>
	<path class="st11" d="M189.3,74.2c-2.2,0-4.1-1.8-4.1-4.1V41.8c0-2.2,1.8-4.1,4.1-4.1s4.1,1.8,4.1,4.1v28.4
		C193.3,72.4,191.5,74.2,189.3,74.2z"/>
</g>
<g>
	<rect x="185.2" y="66.1" class="st17" width="8.1" height="2"/>
	<rect x="183.2" y="108.7" class="st17" width="12.2" height="2"/>
</g>
<g>
	<path class="st5" d="M89.8,138.8h2.4l-1.8,11.9h-2.5L89.8,138.8z"/>
	<path class="st5" d="M94.1,138.8h2.5l3.8,8l1.2-8h2.4l-1.7,11.9H100l-4-8.3l-1.2,8.3h-2.5L94.1,138.8z"/>
	<path class="st5" d="M105.3,138.8h7.3l-0.3,2.1h-2.4l-1.4,9.8h-2.4l1.4-9.8H105L105.3,138.8z"/>
	<path class="st5" d="M113.9,138.8h6.4l-0.3,2.1h-4l-0.4,2.6h3.8l-0.3,2.1h-3.8l-0.4,2.9h3.9l-0.3,2.1H112L113.9,138.8z"/>
	<path class="st5" d="M122,138.8h2.3c1.5,0,2.7,0.3,3.4,0.9c0.8,0.6,1.2,1.5,1.2,2.7c0,0.9-0.2,1.7-0.6,2.4
		c-0.4,0.7-1.1,1.2-2.2,1.4l2.3,4.5h-2.5l-2.2-4.3h-0.4l-0.6,4.3h-2.5L122,138.8z M124.1,140.9l-0.5,3.4l0.5,0
		c0.6,0,1.2-0.2,1.6-0.5c0.4-0.3,0.6-0.8,0.6-1.3c0-0.6-0.2-1-0.5-1.2C125.4,141,124.9,140.9,124.1,140.9z"/>
	<path class="st5" d="M131.6,138.8h2.5l3.8,8l1.2-8h2.4l-1.7,11.9h-2.3l-4-8.3l-1.2,8.3h-2.5L131.6,138.8z"/>
	<path class="st5" d="M143.4,138.8h6.4l-0.3,2.1h-4l-0.4,2.6h3.8l-0.3,2.1h-3.8l-0.4,2.9h3.9l-0.3,2.1h-6.3L143.4,138.8z"/>
	<path class="st5" d="M150.7,138.8h7.3l-0.3,2.1h-2.4l-1.4,9.8h-2.4l1.4-9.8h-2.4L150.7,138.8z"/>
</g>
<rect x="93.3" y="46.3" width="5.6" height="12.9"/>
<g>
</g>
<g>
</g>
<g>
</g>
<g>
</g>
<g>
</g>
</svg>
