<?xml version="1.0" encoding="utf-8"?>
<!-- Generator: Adobe Illustrator 21.0.2, SVG Export Plug-In . SVG Version: 6.00 Build 0)  -->
<svg version="1.1" id="Layer_1" xmlns="http://www.w3.org/2000/svg" xmlns:xlink="http://www.w3.org/1999/xlink" x="0px" y="0px"
	 viewBox="0 0 263 304.7" style="enable-background:new 0 0 263 304.7;" xml:space="preserve">
<style type="text/css">
	
		.st0{fill-rule:evenodd;clip-rule:evenodd;fill:none;stroke:#9B9B8C;stroke-linecap:round;stroke-linejoin:round;stroke-miterlimit:10;}
	.st1{fill:#2450A0;stroke:#262626;stroke-width:7;stroke-miterlimit:10;}
	.st2{fill:#214478;stroke:#FFFFFF;stroke-width:2;stroke-miterlimit:10;}
	.st3{fill:#FFFFFF;}
	.st4{fill:#D4AA00;}
	.st5{fill:#5B5B5B;}
	.st6{fill:#FBB03B;}
</style>
<line class="st0" x1="75" y1="225.5" x2="75" y2="282.5"/>
<circle class="st1" cx="151.5" cy="118.8" r="100.8"/>
<path class="st2" d="M28.2,154.4c0,0,1.9-15.7,21.1-22.7c0,0,18.5-5.5,31.7,10.4c0,0,18-2,25.4,12.2c7.4,14.3,1.2,23.3,1.2,23.3
	s-5.1,11.6-20.2,13.9H26.9c0,0-17.3,0.1-17.3-20.6C9.6,171.1,11.3,154.3,28.2,154.4z"/>
<circle class="st3" cx="59.8" cy="163.7" r="25.4"/>
<circle class="st4" cx="60.2" cy="163.9" r="20.2"/>
<path class="st3" d="M58.2,149.8c0,0-5.9,15.9-5.9,15.9s5.1-0.5,5.1-0.5l-3.5,16.1l15.1-21.9l-5.5,0.3l5.7-11L58.2,149.8z"/>
<circle class="st3" cx="75.7" cy="162" r="0.8"/>
<path class="st3" d="M74.7,163.1c0,0,3.6,3.9,0.3,11.7c0,0,3.6-4.1,2.1-12C77.1,162.7,76.3,163.8,74.7,163.1z"/>
<circle class="st3" cx="44.2" cy="169.3" r="0.9"/>
<path class="st3" d="M45.3,168.1c0,0-4.1-4.3-0.3-13c0,0-4,4.5-2.3,13.4C42.6,168.5,43.5,167.2,45.3,168.1z"/>
<rect x="81.1" y="174.4" transform="matrix(0.9261 0.3772 -0.3772 0.9261 73.4154 -19.5733)" class="st3" width="11.1" height="6.4"/>
<path class="st3" d="M96.8,176.2c-2.9-1.3-5.1,0.2-5.1,0.2l-1.4,2.4c-2.9,4.8,2.3,6.9,2.3,6.9l5.9,2.2c0,0,4.6-2.6,7.8-8.2"/>
<g>
	<path d="M40.2,281.3v-11.2H16.4v-10.9L38,225.7h15.8v34.1h6v10.2h-6v11.2H40.2z M40.5,260.2v-21.9l-14.2,21.9H40.5z"/>
</g>
<g>
	<path class="st5" d="M85.6,236.2h3.8l2.8,8.9l2.8-8.9h3.7l1.9,14.8h-3l-1.3-10.4l-3.3,10.4h-1.5l-3.4-10.5l-1.2,10.5h-3.1
		L85.6,236.2z"/>
	<path class="st5" d="M102.4,243.7c0-2.2,0.7-4,2.2-5.4c1.5-1.4,3.2-2.1,5.2-2.1c2.2,0,4,0.7,5.5,2.2s2.2,3.3,2.2,5.4
		c0,2.2-0.7,4-2.1,5.4c-1.4,1.4-3.2,2.2-5.4,2.2c-2.2,0-3.9-0.7-5.3-2.1C103.1,247.7,102.4,245.9,102.4,243.7z M109.8,239.1
		c-1.2,0-2.2,0.4-3,1.3s-1.1,2-1.1,3.4c0,1.3,0.4,2.4,1.2,3.3s1.8,1.3,2.9,1.3c1.2,0,2.2-0.4,3-1.3c0.8-0.9,1.1-2,1.1-3.4
		c0-1.4-0.4-2.5-1.1-3.3C112.1,239.5,111.1,239.1,109.8,239.1z"/>
	<path class="st5" d="M129.8,236.2h3.1v14.8h-3.1l-6.8-9.6v9.6h-3.2v-14.8h3.2l6.8,9.5V236.2z"/>
	<path class="st5" d="M135.8,236.2h3.2v14.8h-3.2V236.2z"/>
	<path class="st5" d="M140.9,236.2h10v3.2h-3.4v11.7h-3.2v-11.7h-3.4V236.2z"/>
	<path class="st5" d="M152.3,243.7c0-2.2,0.7-4,2.2-5.4c1.5-1.4,3.2-2.1,5.2-2.1c2.2,0,4,0.7,5.5,2.2c1.4,1.4,2.2,3.3,2.2,5.4
		c0,2.2-0.7,4-2.1,5.4c-1.4,1.4-3.2,2.2-5.4,2.2c-2.2,0-3.9-0.7-5.3-2.1C153,247.7,152.3,245.9,152.3,243.7z M159.8,239.1
		c-1.2,0-2.2,0.4-3,1.3c-0.8,0.9-1.1,2-1.1,3.4c0,1.3,0.4,2.4,1.2,3.3s1.8,1.3,2.9,1.3c1.2,0,2.2-0.4,3-1.3c0.8-0.9,1.1-2,1.1-3.4
		c0-1.4-0.4-2.5-1.1-3.3S161,239.1,159.8,239.1z"/>
	<path class="st5" d="M169.9,236.2h4.9c1.5,0,2.7,0.4,3.5,1.2c0.9,0.8,1.3,1.8,1.3,3.2c0,0.8-0.2,1.6-0.6,2.4s-1.1,1.5-2.2,1.9
		l4.2,6.2h-3.7l-3.8-5.7h-0.4v5.7h-3.2V236.2z M173.1,238.9v3.9h0.7c1.7,0,2.5-0.7,2.5-2c0-0.6-0.2-1-0.7-1.3
		c-0.4-0.3-1-0.5-1.8-0.5H173.1z"/>
	<path class="st5" d="M183.5,236.2h8.4v2.9h-5.2v3h5.2v2.9h-5.2v3.1h5.2v2.9h-8.4V236.2z"/>
	<path class="st5" d="M199.7,236.2h2.5l6,14.8H205l-1.2-2.9h-5.7l-1.2,2.9h-3.2L199.7,236.2z M200.9,241.1l-1.7,4.4h3.5L200.9,241.1
		z"/>
	<path class="st5" d="M83.4,259.2h3.5l2.7,4.6l2.8-4.6H96l-4.7,7.9v6.9h-3.2v-6.9L83.4,259.2z"/>
	<path class="st5" d="M115.3,260v3.6c-1.6-1-3-1.4-4.2-1.4c-1.2,0-2.2,0.4-2.9,1.2s-1.1,1.9-1.1,3.3c0,1.3,0.4,2.4,1.1,3.2
		c0.8,0.8,1.8,1.2,3.1,1.2c1.1,0,2.4-0.4,4-1.3v3.6c-1.7,0.6-3.2,0.9-4.4,0.9c-2,0-3.7-0.7-5.1-2.2c-1.4-1.5-2.1-3.3-2.1-5.4
		c0-2.1,0.7-4,2.1-5.5c1.4-1.5,3.1-2.2,5.2-2.2C112.4,259,113.8,259.4,115.3,260z"/>
	<path class="st5" d="M117.2,266.7c0-2.2,0.7-4,2.2-5.4c1.5-1.4,3.2-2.1,5.2-2.1c2.2,0,4,0.7,5.5,2.2c1.4,1.4,2.2,3.3,2.2,5.4
		c0,2.2-0.7,4-2.1,5.4c-1.4,1.4-3.2,2.2-5.4,2.2s-3.9-0.7-5.3-2.1C117.9,270.7,117.2,268.9,117.2,266.7z M124.7,262.1
		c-1.2,0-2.2,0.4-3,1.3s-1.1,2-1.1,3.4c0,1.3,0.4,2.4,1.2,3.3c0.8,0.9,1.8,1.3,2.9,1.3c1.2,0,2.2-0.4,3-1.3c0.8-0.9,1.1-2,1.1-3.4
		c0-1.4-0.4-2.5-1.1-3.3S125.9,262.1,124.7,262.1z"/>
	<path class="st5" d="M144.6,259.2h3.1v14.8h-3.1l-6.8-9.6v9.6h-3.2v-14.8h3.2l6.8,9.5V259.2z"/>
	<path class="st5" d="M149.7,259.2h10v3.2h-3.4v11.7h-3.2v-11.7h-3.4V259.2z"/>
	<path class="st5" d="M161.8,259.2h4.9c1.5,0,2.7,0.4,3.5,1.2c0.9,0.8,1.3,1.8,1.3,3.2c0,0.8-0.2,1.6-0.6,2.4s-1.1,1.5-2.2,1.9
		l4.2,6.2h-3.7l-3.8-5.7H165v5.7h-3.2V259.2z M165,261.9v3.9h0.7c1.7,0,2.5-0.7,2.5-2c0-0.6-0.2-1-0.7-1.3c-0.4-0.3-1-0.5-1.8-0.5
		H165z"/>
	<path class="st5" d="M173.9,266.7c0-2.2,0.7-4,2.2-5.4c1.5-1.4,3.2-2.1,5.2-2.1c2.2,0,4,0.7,5.5,2.2c1.4,1.4,2.2,3.3,2.2,5.4
		c0,2.2-0.7,4-2.1,5.4c-1.4,1.4-3.2,2.2-5.4,2.2c-2.2,0-3.9-0.7-5.3-2.1C174.6,270.7,173.9,268.9,173.9,266.7z M181.4,262.1
		c-1.2,0-2.2,0.4-3,1.3c-0.8,0.9-1.1,2-1.1,3.4c0,1.3,0.4,2.4,1.2,3.3s1.8,1.3,2.9,1.3c1.2,0,2.2-0.4,3-1.3c0.8-0.9,1.1-2,1.1-3.4
		c0-1.4-0.4-2.5-1.1-3.3S182.7,262.1,181.4,262.1z"/>
	<path class="st5" d="M191.6,259.2h3.2v11.6h4.4v3.2h-7.6V259.2z"/>
	<path class="st5" d="M206.6,259.2h2.5l6,14.8h-3.2l-1.2-2.9H205l-1.2,2.9h-3.2L206.6,259.2z M207.8,264.1l-1.7,4.4h3.5L207.8,264.1
		z"/>
</g>
<rect x="54.7" y="140.4" class="st3" width="7.6" height="0.9"/>
<g>
	<path class="st6" d="M188.5,152.6c-0.9-1.1-1-3-2.2-4.5c-7.5-9.2-7.3-12.1-7.8-23.8c-0.7-16.6,0.1-9.1,2-8.5
		c1.8,0.6,3.2-4.9,1.5-5.3c-4.2-1-14,0.2-14.8-6.6c-0.7-5.5-4.7-13.1-10.1-15.1c-0.6-0.2,0.6-1.6,0.1-1.8
		c-13.6-5.5-1.4,10.6-16.1,1.5c-2.7-1.7-2-7.1-5-8.9c-6.4-3.7-6.3-9.3-16.2-6.7c-0.9,0.2-0.5,1.8-1.2,2.4c-5,4.2-28.2-4.9-35.1-10.7
		c-1.1-0.9-11-0.7-12.3-0.2c0,0,5.7,18.3,8.3,20.5c3.2,2.7,8.1,6.6,4.3,10.4c-0.6,0.6,4.6,2.1-0.9,0.9c-7.8-1.8,1.1,3.8,3,5.4
		c1.1,0.9,1.7,0.5,4,0.4c0.7,0,0.9,3,3,4.4c5,3.4,0.4,7.5,4.8,12c2.2,2.2,5.1,3.9,7.4,6.1c1.4,1.3-0.1,3.8,1.7,4.7
		c3.8,1.9,4.8-3-0.7-9.3c-0.4-0.5-0.5,2.1-0.9,1.7c-3.8-3.8-3-15.3-7.2-18.5c0,0,0.6,5.2-1.2,0.3c-2.4-6.5-8.6-14.4-12.6-20.8
		c-2.1-3.3-2.1-13.1-2-13.4c0,0,7.2,3.7,7.4,3.9c0.8,1,2.4,0.1,3.2,1.5c1.9,3.6-1,8.8,9,20.9c1.2,1.4,2.6,0.2,3.4,1.8
		c0.4,0.9-0.1,3.1,1.5,4.3c1,0.8,7.8,5.7,6.8,7c-0.3,0.4-3.8-1.2-2.2,2.9c0,0,5.2,2.3,7.5,5.8c2.3,3.6,2.9,1.1,6.3,6.3
		c1.9,2.9,4.1,7.1,6.8,9.7c0.3,0.3,2.5,4.5,1.5,10.1c0,0.1,1.5,0.6,1.1,1.8c-0.5,1.5-5.4-1,0.5,5.9c1.8,2.1,6.9,4.4,8.2,5.7
		c7.2,7,8.6,3.4,12,5.3c4.5,2.5,5.9,6.1,14.7,8.1c7.2,1.6,18.1,9.9,26.7,2.4c5.9-5.2,17.9,9.6,19.1,9.2c0.8-0.3-0.9-8.3,2.4-9.9
		c1.9-0.9,6.1,1.4,7.8-0.7c1.7-2.1-2.3-3.6-4.2-5.3c-0.7-0.6-3.1-1.1-1.5-1.6c5.5-2.1-2.1-5.8,1.7-4.8c19,4.6,15.6-12.4,17.8-5.1
		c1.7,5.4,2.3-4.2,2.1-4.4c-4.5-4.2,7.4-11.4,2.3-15.5c-1.7-1.4-16.6,3.1-18.3,4.2c-4,2.6-1,4.9-2.1,8.4c-1.3,4-4,3.3-4.6,6.8
		c-0.9,5-5,2.8-4.9,2.5c0.1-2.4-7.7,2.6-3,2c4-0.5,2.8,2.2-2.9,2.1c-0.9,0,0.8-2.5,0-2.7c-3.7-0.9-5.4,4.5-8.1,2.2
		C192.2,153.3,197.8,163.6,188.5,152.6z"/>
</g>
<g>
</g>
<g>
</g>
<g>
</g>
<g>
</g>
<g>
</g>
</svg>
