<?xml version="1.0" encoding="utf-8"?>
<!-- Generator: Adobe Illustrator 21.0.2, SVG Export Plug-In . SVG Version: 6.00 Build 0)  -->
<svg version="1.1" id="Layer_1" xmlns="http://www.w3.org/2000/svg" xmlns:xlink="http://www.w3.org/1999/xlink" x="0px" y="0px"
	 viewBox="0 0 72 59" style="enable-background:new 0 0 72 59;" xml:space="preserve">
<g>
	<path d="M58.6,9.3l0.1-0.2L58.4,3c0-0.4-0.5-0.7-0.9-0.4L53,6.8l0,0.3C55,7.4,56.9,8.3,58.6,9.3z"/>
	<path d="M64.6,15.1c1.1,1.7,1.9,3.6,2.4,5.6l0.2-0.1l4.1-4.5c0.3-0.3,0.1-0.9-0.4-0.9L64.8,15L64.6,15.1z"/>
	<path d="M67,29.2c-0.5,2-1.2,3.9-2.3,5.6l0.2,0.1l6.1-0.3c0.4,0,0.7-0.5,0.4-0.9l-4.2-4.4L67,29.2z"/>
	<path d="M53.3,43l0.1,0.2l4.5,4.1c0.3,0.3,0.9,0.1,0.9-0.4l0.2-6.1l-0.1-0.2C57.1,41.8,55.3,42.7,53.3,43z"/>
	<path d="M62.5,23.5c-0.7-6.5-6-11.6-12.5-12.1c-2-0.2-3.9,0.1-5.6,0.7c-0.6,0.2-1,0.8-0.9,1.5l3.7,24c0.1,0.6,0.6,1.1,1.3,1.1
		c0.1,0,0.3,0,0.4,0C57,38.8,63.4,31.8,62.5,23.5z"/>
	<path d="M44.5,39.8L39.1,4.3c-0.1-0.8-0.7-1.4-1.4-1.4H7.9c-0.7,0-1.3,0.6-1.4,1.4l-6,35.6c-0.2,1.1,0.5,2,1.4,2h14.4
		c0.8,0,1.4,0.8,1.4,1.7V48c0,0.9-0.6,1.7-1.4,1.7H14c-0.8,0-1.4,0.8-1.4,1.7v2.8c0,0.9,0.6,1.7,1.4,1.7h17c0.8,0,1.4-0.8,1.4-1.7
		v-2.8c0-0.9-0.6-1.7-1.4-1.7h-2.3c-0.8,0-1.4-0.8-1.4-1.7v-4.5c0-0.9,0.6-1.7,1.4-1.7h14.4C44,41.8,44.7,41,44.5,39.8z M18.3,15.8
		l0.6-6.1c0-0.5,0.4-0.8,0.8-0.8h5.7c0.4,0,0.7,0.4,0.8,0.8l0.6,6.1c0.1,0.6-0.3,1-0.8,1h-6.9C18.6,16.8,18.3,16.3,18.3,15.8z
		 M17.4,25l0.5-4.9c0-0.5,0.4-0.8,0.8-0.8h7.7c0.4,0,0.7,0.4,0.8,0.8l0.5,4.9c0.1,0.6-0.3,1-0.8,1h-8.7C17.7,26,17.3,25.7,17.4,25z
		 M14.8,29.7l-0.5,5.4c0,0.5-0.4,0.8-0.8,0.8H7.2c-0.5,0-0.9-0.5-0.8-1.1l0.9-5.4c0.1-0.4,0.4-0.7,0.8-0.7H14
		C14.5,28.7,14.8,29.2,14.8,29.7z M15.7,20.4l-0.5,4.9c0,0.5-0.4,0.8-0.8,0.8H8.9c-0.5,0-0.9-0.5-0.8-1.1L8.9,20
		c0.1-0.4,0.4-0.8,0.8-0.8h5.2C15.4,19.3,15.8,19.8,15.7,20.4z M16.2,16c0,0.5-0.4,0.8-0.8,0.8h-4.9c-0.5,0-0.9-0.5-0.8-1.1l1-6.1
		c0.1-0.4,0.4-0.7,0.8-0.7H16c0.5,0,0.8,0.5,0.8,1L16.2,16z M27.8,35.8H17.2c-0.5,0-0.8-0.5-0.8-1l0.5-5.4c0-0.5,0.4-0.8,0.8-0.8
		h9.6c0.4,0,0.7,0.4,0.8,0.8l0.5,5.4C28.7,35.3,28.3,35.8,27.8,35.8z M28.9,16l-0.6-6.1c-0.1-0.6,0.3-1,0.8-1H34
		c0.4,0,0.7,0.3,0.8,0.8l0.9,6.1c0.1,0.6-0.3,1.1-0.8,1.1h-5.2C29.3,16.8,28.9,16.5,28.9,16z M29.8,25.3l-0.5-4.9
		c-0.1-0.6,0.3-1,0.8-1h5.5c0.4,0,0.7,0.3,0.8,0.8l0.8,4.9c0.1,0.6-0.3,1.1-0.8,1.1h-5.7C30.2,26,29.9,25.8,29.8,25.3z M37.8,35.8
		h-6.3c-0.4,0-0.7-0.4-0.8-0.8l-0.5-5.4c-0.1-0.6,0.3-1,0.8-1h6c0.4,0,0.7,0.3,0.8,0.8l0.8,5.4C38.7,35.3,38.3,35.8,37.8,35.8z"/>
</g>
</svg>
