<?xml version="1.0" encoding="utf-8"?>
<!-- Generator: Adobe Illustrator 21.0.2, SVG Export Plug-In . SVG Version: 6.00 Build 0)  -->
<svg version="1.1"
	 id="svg3997" xmlns:cc="http://creativecommons.org/ns#" xmlns:dc="http://purl.org/dc/elements/1.1/" xmlns:rdf="http://www.w3.org/1999/02/22-rdf-syntax-ns#" xmlns:svg="http://www.w3.org/2000/svg"
	 xmlns="http://www.w3.org/2000/svg" xmlns:xlink="http://www.w3.org/1999/xlink" x="0px" y="0px" viewBox="0 0 280 259"
	 style="enable-background:new 0 0 280 259;" xml:space="preserve">
<style type="text/css">
	.st0{fill:url(#path4699_1_);}
	.st1{fill:#E05121;}
	.st2{clip-path:url(#SVGID_2_);}
	.st3{clip-path:url(#SVGID_4_);fill:url(#rect4740_1_);}
	.st4{opacity:0.29;fill:url(#rect4747_1_);enable-background:new    ;}
	.st5{opacity:0.29;fill:url(#rect4754_1_);enable-background:new    ;}
	.st6{opacity:0.29;fill:url(#rect4761_1_);enable-background:new    ;}
	.st7{display:none;opacity:0.41;clip-path:url(#SVGID_6_);fill:url(#path4776_1_);enable-background:new    ;}
	.st8{opacity:0.43;clip-path:url(#SVGID_8_);fill:url(#path4783_1_);enable-background:new    ;}
	.st9{opacity:0.6;clip-path:url(#SVGID_10_);fill:url(#path4790_1_);enable-background:new    ;}
</style>
<g id="layer1" transform="translate(0,3.0698341e-6)">
	<g id="g4177" transform="translate(745.37881,130.34971)">
		<g id="g4690" transform="translate(-866.92081,-171.61949)">
			<g id="g4692">
				
					<linearGradient id="path4699_1_" gradientUnits="userSpaceOnUse" x1="478.3915" y1="-40.2688" x2="478.3915" y2="161.4708" gradientTransform="matrix(0.8 0 0 -0.8 -124.7252 214.0698)">
					<stop  offset="0" style="stop-color:#666666"/>
					<stop  offset="1" style="stop-color:#242424"/>
				</linearGradient>
				<path id="path4699" class="st0" d="M351.4,169.4c0-30.2-8.2-53.7-24.2-69.7c-19.4-19.4-45.8-23.4-64.5-23.4h-0.2
					c-12.8,0-36.6,0-57.8,11.9c-26.6,14.8-40.1,42.6-40.1,82.6c0,29.3,8.4,52.3,25,68.3c11.7,11.3,33.2,24.4,70,24.4
					c1.7,0,3.4,0,5.2-0.1c0.5,0,0.9,0,1.2,0c0,0,0,0,0,0l0.6,0l-0.1-19.5c-0.7,0-1.2,0-2.3,0c-33.2,1.1-51.5-9.6-61-18.8
					c-12.6-12.2-19-30.4-19-54.2c0-65.9,39.6-74.9,78.4-74.9h0.2c0,0,0.1,0,0.1,0c15,0,35.9,3.1,50.5,17.7
					c12.3,12.2,18.5,31.1,18.5,56l0,0.1l0,0.1c0,0.2,0.2,19-12.1,31.6c-7.9,8.1-19.7,12.2-35,12.2c-20.8,0-34.8-3.5-41.6-10.3
					c-7.1-7.1-7-18.4-7-31.4l0-1.8c0-14.8,0.1-21.9,0.1-25.1l20.8-14.6l21,14.8v50.7h19.6v-37l11.4,8l11.3-16L257,106.2l-63.2,44.5
					l11.3,16l11.5-8.1c0,3.4,0,7.1,0,11.3l0,1.8c0,15.2,0,32.5,12.8,45.3c10.9,11,28.6,16.1,55.5,16.1c20.8,0,37.4-6.1,49.1-18.3
					C351.4,196.7,351.5,172,351.4,169.4L351.4,169.4z"/>
			</g>
			<rect id="rect4701" x="273.9" y="243.8" class="st1" width="11.7" height="19.6"/>
			<rect id="rect4703" x="293" y="243.8" class="st1" width="11.7" height="19.6"/>
			<rect id="rect4705" x="312.1" y="243.8" class="st1" width="11.7" height="19.6"/>
		</g>
		<g id="g4707" transform="translate(-866.92081,-171.61949)">
			<g>
				<defs>
					<polygon id="SVGID_1_" points="195.9,181.7 191.8,141.7 221.3,115.3 255.1,103.4 297.1,126.1 324,147.3 321.4,174 325.8,177.3 
						289.5,203.7 244.1,181.2 209,181.2 200.8,176.5 					"/>
				</defs>
				<clipPath id="SVGID_2_">
					<use xlink:href="#SVGID_1_"  style="overflow:visible;"/>
				</clipPath>
				<g id="g4715" class="st2">
					<path id="path4717" class="st1" d="M351.4,169.4c0-30.2-8.2-53.7-24.2-69.7c-19.4-19.4-45.8-23.4-64.5-23.4h-0.2
						c-12.8,0-36.6,0-57.8,11.9c-26.6,14.8-40.1,42.6-40.1,82.6c0,29.3,8.4,52.3,25,68.3c11.7,11.3,33.2,24.4,70,24.4
						c1.7,0,3.4,0,5.2-0.1c0.5,0,0.9,0,1.2,0c0,0,0,0,0,0l0.6,0l-0.1-19.5c-0.7,0-1.2,0-2.3,0c-33.2,1.1-51.5-9.6-61-18.8
						c-12.6-12.2-19-30.4-19-54.2c0-65.9,39.6-74.9,78.4-74.9h0.2c0,0,0.1,0,0.1,0c15,0,35.9,3.1,50.5,17.7
						c12.3,12.2,18.5,31.1,18.5,56l0,0.1l0,0.1c0,0.2,0.2,19-12.1,31.6c-7.9,8.1-19.7,12.2-35,12.2c-20.8,0-34.8-3.5-41.6-10.3
						c-7.1-7.1-7-18.4-7-31.4l0-1.8c0-14.8,0.1-21.9,0.1-25.1l20.8-14.6l21,14.8v50.7h19.6v-37l11.4,8l11.3-16L257,106.2l-63.2,44.5
						l11.3,16l11.5-8.1c0,3.4,0,7.1,0,11.3l0,1.8c0,15.2,0,32.5,12.8,45.3c10.9,11,28.6,16.1,55.5,16.1c20.8,0,37.4-6.1,49.1-18.3
						C351.4,196.7,351.5,172,351.4,169.4L351.4,169.4z"/>
					<rect id="rect4719" x="273.9" y="243.8" class="st1" width="11.7" height="19.6"/>
					<rect id="rect4721" x="292.7" y="243.8" class="st1" width="11.7" height="19.6"/>
					<rect id="rect4723" x="311" y="243.8" class="st1" width="11.7" height="19.6"/>
				</g>
			</g>
		</g>
		<g id="g4725" transform="translate(-866.92081,-171.61949)">
			<g>
				<defs>
					<path id="SVGID_3_" d="M289.5,213.3c-1.5,0.1-3.1,0.1-4.7,0.1c-20.8,0-34.8-3.5-41.6-10.3c-5.4-5.5-6.7-13.4-7-22.8h-19.6
						c0.3,12.8,2.3,26.2,12.7,36.6c6.9,6.9,16.5,11.5,29.4,13.9h30.8L289.5,213.3L289.5,213.3z"/>
				</defs>
				<clipPath id="SVGID_4_">
					<use xlink:href="#SVGID_3_"  style="overflow:visible;"/>
				</clipPath>
				
					<linearGradient id="rect4740_1_" gradientUnits="userSpaceOnUse" x1="444.4866" y1="34.8373" x2="498.7133" y2="-22.0022" gradientTransform="matrix(0.8 0 0 -0.8 -124.7252 214.0698)">
					<stop  offset="0" style="stop-color:#E05121"/>
					<stop  offset="0.3858" style="stop-color:#BE572C;stop-opacity:0.6142"/>
					<stop  offset="1" style="stop-color:#806240;stop-opacity:0"/>
				</linearGradient>
				<rect id="rect4740" x="211.7" y="177.1" class="st3" width="79.2" height="61.1"/>
			</g>
		</g>
		
			<linearGradient id="rect4747_1_" gradientUnits="userSpaceOnUse" x1="-366.4755" y1="-212.4309" x2="-357.0238" y2="-226.5412" gradientTransform="matrix(0.8 0 0 -0.8 -298.1094 -94.8453)">
			<stop  offset="0" style="stop-color:#EDEDED"/>
			<stop  offset="1" style="stop-color:#FFFFFF;stop-opacity:0"/>
		</linearGradient>
		<rect id="rect4747" x="-590.5" y="74.5" class="st4" width="9.1" height="17.4"/>
		
			<linearGradient id="rect4754_1_" gradientUnits="userSpaceOnUse" x1="-342.558" y1="-212.4315" x2="-333.1064" y2="-226.5419" gradientTransform="matrix(0.8 0 0 -0.8 -298.1094 -94.8453)">
			<stop  offset="0" style="stop-color:#EDEDED"/>
			<stop  offset="1" style="stop-color:#FFFFFF;stop-opacity:0"/>
		</linearGradient>
		<rect id="rect4754" x="-571.3" y="74.5" class="st5" width="9.1" height="17.4"/>
		
			<linearGradient id="rect4761_1_" gradientUnits="userSpaceOnUse" x1="-318.6811" y1="-212.4315" x2="-309.2294" y2="-226.5419" gradientTransform="matrix(0.8 0 0 -0.8 -298.1094 -94.8453)">
			<stop  offset="0" style="stop-color:#EDEDED"/>
			<stop  offset="1" style="stop-color:#FFFFFF;stop-opacity:0"/>
		</linearGradient>
		<rect id="rect4761" x="-552.2" y="74.5" class="st6" width="9.1" height="17.4"/>
		<g id="g4763" transform="translate(-866.92081,-171.61949)">
			<g>
				<defs>
					<path id="SVGID_5_" d="M348.6,169.4L348.6,169.4c0-29.5-7.9-52.3-23.4-67.7C306.5,83,281,79.1,262.9,79.1h-0.2h-0.2
						c-12.5,0-35.8,0-56.5,11.5c-12.7,7.1-22.5,17.4-28.9,30.6c-6.5,13.4-9.8,30-9.8,49.5c0,28.5,8.1,50.8,24.1,66.3
						c11.1,10.8,32,23.6,68.1,23.6c1.4,0,2.7,0,4.1-0.1l-0.1-14c-1.4,0-2.7,0.1-4.1,0.1c-31.4,0-49.1-10.7-58.4-19.7
						c-13.2-12.8-19.8-31.7-19.8-56.2c0-31,8.5-52.1,25.8-64.4c16.5-11.7,38.3-13.3,55.4-13.3h0.2h0.2c15.5,0,37.2,3.2,52.5,18.5
						c12.8,12.8,19.3,32.3,19.3,57.9v0v0l0,0l0,0.1l0,0v0c0,0.1,0.1,5.1-1.5,11.8c-2.1,8.7-6,16.2-11.4,21.8
						c-8.5,8.7-20.9,13.1-37,13.1c-10.6,0-19.6-0.9-26.7-2.7c-7.4-1.8-13.1-4.7-16.9-8.5c-7.9-7.9-7.9-19.7-7.8-33.4l0-1.8
						c0-14.7,0.1-21.8,0.1-25.2l0-1.4l1.2-0.8l20.8-14.6l1.6-1.1l1.6,1.1l21,14.8l1.2,0.8v1.5v47.9h14v-34.2v-5.4l4.4,3.1l9.1,6.4
						l8-11.4L257,109.7l-59.3,41.7l8,11.4l9.2-6.5l4.4-3.1l0,5.4c0,3.3,0,7.1,0,11.3l0,1.8c0,7.6,0,15.4,1.5,23
						c1.7,8.4,5.1,15,10.4,20.3c10.4,10.4,27.4,15.2,53.5,15.2c20,0,35.9-5.9,47.1-17.4C348.6,195.6,348.7,172,348.6,169.4
						L348.6,169.4L348.6,169.4z"/>
				</defs>
				<clipPath id="SVGID_6_">
					<use xlink:href="#SVGID_5_"  style="overflow:visible;"/>
				</clipPath>
				
					<linearGradient id="path4776_1_" gradientUnits="userSpaceOnUse" x1="129.3089" y1="719.9597" x2="129.3089" y2="946.6368" gradientTransform="matrix(-0.6669 0.4418 0.4418 0.6669 17.787 -386.5866)">
					<stop  offset="0" style="stop-color:#FFFFFF"/>
					<stop  offset="1" style="stop-color:#FFFFFF;stop-opacity:0"/>
				</linearGradient>
				<path id="path4776" class="st7" d="M353.4,106.6c0,0-47.9-5.1-101,30.1c-53.1,35.2-76.7,69.6-80.9,90.5
					c-4.2,20.9,59.8,43.2,59.8,43.2l53.9-10.4l68-50.5l13.3-42.7L353.4,106.6L353.4,106.6z"/>
			</g>
			<g>
				<defs>
					<path id="SVGID_7_" d="M348.6,169.4L348.6,169.4c0-29.5-7.9-52.3-23.4-67.7C306.5,83,281,79.1,262.9,79.1h-0.2h-0.2
						c-12.5,0-35.8,0-56.5,11.5c-12.7,7.1-22.5,17.4-28.9,30.6c-6.5,13.4-9.8,30-9.8,49.5c0,28.5,8.1,50.8,24.1,66.3
						c11.1,10.8,32,23.6,68.1,23.6c1.4,0,2.7,0,4.1-0.1l-0.1-14c-1.4,0-2.7,0.1-4.1,0.1c-31.4,0-49.1-10.7-58.4-19.7
						c-13.2-12.8-19.8-31.7-19.8-56.2c0-31,8.5-52.1,25.8-64.4c16.5-11.7,38.3-13.3,55.4-13.3h0.2h0.2c15.5,0,37.2,3.2,52.5,18.5
						c12.8,12.8,19.3,32.3,19.3,57.9v0v0l0,0l0,0.1l0,0v0c0,0.1,0.1,5.1-1.5,11.8c-2.1,8.7-6,16.2-11.4,21.8
						c-8.5,8.7-20.9,13.1-37,13.1c-10.6,0-19.6-0.9-26.7-2.7c-7.4-1.8-13.1-4.7-16.9-8.5c-7.9-7.9-7.9-19.7-7.8-33.4l0-1.8
						c0-14.7,0.1-21.8,0.1-25.2l0-1.4l1.2-0.8l20.8-14.6l1.6-1.1l1.6,1.1l21,14.8l1.2,0.8v1.5v47.9h14v-34.2v-5.4l4.4,3.1l9.1,6.4
						l8-11.4L257,109.7l-59.3,41.7l8,11.4l9.2-6.5l4.4-3.1l0,5.4c0,3.3,0,7.1,0,11.3l0,1.8c0,7.6,0,15.4,1.5,23
						c1.7,8.4,5.1,15,10.4,20.3c10.4,10.4,27.4,15.2,53.5,15.2c20,0,35.9-5.9,47.1-17.4C348.6,195.6,348.7,172,348.6,169.4
						L348.6,169.4L348.6,169.4z"/>
				</defs>
				<clipPath id="SVGID_8_">
					<use xlink:href="#SVGID_7_"  style="overflow:visible;"/>
				</clipPath>
				
					<linearGradient id="path4783_1_" gradientUnits="userSpaceOnUse" x1="436.9104" y1="0.644" x2="352.6117" y2="152.9754" gradientTransform="matrix(0.7766 -0.192 -0.192 -0.7766 -63.877 251.3402)">
					<stop  offset="0" style="stop-color:#FFFFFF"/>
					<stop  offset="1" style="stop-color:#FFFFFF;stop-opacity:0"/>
				</linearGradient>
				<path id="path4783" class="st8" d="M166.1,272c0,0,55.2-114.4,204.8-146.4S298,47.8,260.7,59.5S111.1,97,104.2,119.2
					c-6.9,22.2,42.5,139.5,46.9,142.2C155.5,264.1,166.1,272,166.1,272L166.1,272z"/>
			</g>
			<g>
				<defs>
					<path id="SVGID_9_" d="M348.6,169.4L348.6,169.4c0-29.5-7.9-52.3-23.4-67.7C306.5,83,281,79.1,262.9,79.1h-0.2h-0.2
						c-12.5,0-35.8,0-56.5,11.5c-12.7,7.1-22.5,17.4-28.9,30.6c-6.5,13.4-9.8,30-9.8,49.5c0,28.5,8.1,50.8,24.1,66.3
						c11.1,10.8,32,23.6,68.1,23.6c1.4,0,2.7,0,4.1-0.1l-0.1-14c-1.4,0-2.7,0.1-4.1,0.1c-31.4,0-49.1-10.7-58.4-19.7
						c-13.2-12.8-19.8-31.7-19.8-56.2c0-31,8.5-52.1,25.8-64.4c16.5-11.7,38.3-13.3,55.4-13.3h0.2h0.2c15.5,0,37.2,3.2,52.5,18.5
						c12.8,12.8,19.3,32.3,19.3,57.9v0v0l0,0l0,0.1l0,0v0c0,0.1,0.1,5.1-1.5,11.8c-2.1,8.7-6,16.2-11.4,21.8
						c-8.5,8.7-20.9,13.1-37,13.1c-10.6,0-19.6-0.9-26.7-2.7c-7.4-1.8-13.1-4.7-16.9-8.5c-7.9-7.9-7.9-19.7-7.8-33.4l0-1.8
						c0-14.7,0.1-21.8,0.1-25.2l0-1.4l1.2-0.8l20.8-14.6l1.6-1.1l1.6,1.1l21,14.8l1.2,0.8v1.5v47.9h14v-34.2v-5.4l4.4,3.1l9.1,6.4
						l8-11.4L257,109.7l-59.3,41.7l8,11.4l9.2-6.5l4.4-3.1l0,5.4c0,3.3,0,7.1,0,11.3l0,1.8c0,7.6,0,15.4,1.5,23
						c1.7,8.4,5.1,15,10.4,20.3c10.4,10.4,27.4,15.2,53.5,15.2c20,0,35.9-5.9,47.1-17.4C348.6,195.6,348.7,172,348.6,169.4
						L348.6,169.4L348.6,169.4z"/>
				</defs>
				<clipPath id="SVGID_10_">
					<use xlink:href="#SVGID_9_"  style="overflow:visible;"/>
				</clipPath>
				
					<linearGradient id="path4790_1_" gradientUnits="userSpaceOnUse" x1="503.9521" y1="58.9064" x2="442.5168" y2="169.9227" gradientTransform="matrix(0.8 0 0 -0.8 -124.7252 214.0698)">
					<stop  offset="0" style="stop-color:#FFFFFF"/>
					<stop  offset="1" style="stop-color:#FFFFFF;stop-opacity:0"/>
				</linearGradient>
				<path id="path4790" class="st9" d="M422.1,100.1c0.4,8.6-13.8,17.5-51.2,25.5C221.2,157.6,166.1,272,166.1,272
					s-10.6-7.9-15-10.6c-3.7-2.3-39.5-86.2-46.4-125.7c6.1,38.6,42.9,125.2,46.7,127.5c4.4,2.7,15,10.6,15,10.6
					s55.2-114.4,204.8-146.4C411.3,118.8,424.7,109.3,422.1,100.1L422.1,100.1z"/>
			</g>
		</g>
	</g>
</g>
</svg>
