<?xml version="1.0" encoding="utf-8"?>
<!-- Generator: Adobe Illustrator 21.0.2, SVG Export Plug-In . SVG Version: 6.00 Build 0)  -->
<svg version="1.1" id="Layer_1" xmlns="http://www.w3.org/2000/svg" xmlns:xlink="http://www.w3.org/1999/xlink" x="0px" y="0px"
	 viewBox="0 0 263 304.7" style="enable-background:new 0 0 263 304.7;" xml:space="preserve">
<style type="text/css">
	
		.st0{fill-rule:evenodd;clip-rule:evenodd;fill:#006699;stroke:#666666;stroke-width:3;stroke-linecap:round;stroke-linejoin:round;stroke-miterlimit:10;}
	.st1{fill-rule:evenodd;clip-rule:evenodd;fill:none;stroke:#000000;stroke-width:3;stroke-miterlimit:10;}
	
		.st2{fill-rule:evenodd;clip-rule:evenodd;fill:#FFFFFF;stroke:#666666;stroke-width:3;stroke-linecap:round;stroke-linejoin:round;stroke-miterlimit:10;}
	.st3{fill:#D6C100;}
	
		.st4{fill-rule:evenodd;clip-rule:evenodd;fill:none;stroke:#FFFFFF;stroke-width:5;stroke-linecap:round;stroke-linejoin:round;stroke-miterlimit:10;}
	
		.st5{fill-rule:evenodd;clip-rule:evenodd;stroke:#666666;stroke-width:3;stroke-linecap:round;stroke-linejoin:round;stroke-miterlimit:10;}
	.st6{fill-rule:evenodd;clip-rule:evenodd;fill:#B28500;}
	.st7{fill-rule:evenodd;clip-rule:evenodd;fill:#FFFFFF;}
	.st8{fill-rule:evenodd;clip-rule:evenodd;}
	
		.st9{fill-rule:evenodd;clip-rule:evenodd;fill:none;stroke:#9B9B8C;stroke-linecap:round;stroke-linejoin:round;stroke-miterlimit:10;}
	.st10{fill:none;stroke:#000000;stroke-width:6;stroke-miterlimit:10;}
	.st11{fill:#214478;stroke:#005F93;stroke-miterlimit:10;}
	.st12{fill:#FFFFFF;}
	.st13{fill:#D4AA00;stroke:#99883D;stroke-width:0.5;stroke-miterlimit:10;}
	.st14{fill:#FFFFFF;stroke:#99883D;stroke-width:0.5;stroke-miterlimit:10;}
	.st15{fill:none;stroke:#FFFFFF;stroke-miterlimit:10;}
	.st16{fill:none;stroke:#000000;stroke-width:3;stroke-miterlimit:10;}
	.st17{fill:#5B5B5B;}
</style>
<polygon class="st0" points="234.9,76.6 247.1,114.9 218.3,122.2 206.1,83.9 "/>
<path class="st1" d="M230.6,116.7c0,0,17.3,69.9-19.9,66.3s-31.3-35.9-31.3-35.9"/>
<polygon class="st0" points="234.9,76.6 247.1,114.9 218.3,122.2 206.1,83.9 "/>
<polygon class="st2" points="215.5,91.3 230.7,87.4 233.8,98.1 218.9,102.4 "/>
<path class="st3" d="M184.1,56h-2.3c-1.8,0-3.3-1.5-3.3-3.3v0c0-1.8,1.5-3.3,3.3-3.3h2.3c1.8,0,3.3,1.5,3.3,3.3v0
	C187.4,54.5,185.9,56,184.1,56z"/>
<line class="st4" x1="219.5" y1="94.5" x2="205.8" y2="97.9"/>
<g>
	<path class="st5" d="M29.8,119.1c0,3.5,2.1,5.8,5.2,5.8h20.1c3.1,0,5.2-2.3,5.2-5.8V88.6c0-3.5-2.1-5.8-5.2-5.8H35
		c-3.1,0-5.2,2.3-5.2,5.8V119.1z"/>
</g>
<rect x="15.5" y="88" class="st6" width="12.5" height="5.9"/>
<ellipse class="st7" cx="19.1" cy="91.3" rx="1.8" ry="1.1"/>
<rect x="39.7" y="121.8" class="st8" width="9" height="8.8"/>
<line class="st9" x1="72" y1="225.5" x2="72" y2="282.5"/>
<path class="st10" d="M184,143.1H86.3c-6.6,0-12-5.4-12-12V67.7c0-6.6,5.4-12,12-12H184c6.6,0,12,5.4,12,12v63.3
	C196,137.7,190.6,143.1,184,143.1z"/>
<path d="M118.2,149.3h-5c-1.8,0-3.3-1.5-3.3-3.3l0,0c0-1.8,1.5-3.3,3.3-3.3h5c1.8,0,3.3,1.5,3.3,3.3l0,0
	C121.5,147.8,120,149.3,118.2,149.3z"/>
<path d="M139.2,149.3h-5c-1.8,0-3.3-1.5-3.3-3.3l0,0c0-1.8,1.5-3.3,3.3-3.3h5c1.8,0,3.3,1.5,3.3,3.3l0,0
	C142.4,147.8,141,149.3,139.2,149.3z"/>
<path d="M160.1,149.3h-5c-1.8,0-3.3-1.5-3.3-3.3l0,0c0-1.8,1.5-3.3,3.3-3.3h5c1.8,0,3.3,1.5,3.3,3.3l0,0
	C163.4,147.8,161.9,149.3,160.1,149.3z"/>
<path d="M181,149.3h-5c-1.8,0-3.3-1.5-3.3-3.3l0,0c0-1.8,1.5-3.3,3.3-3.3h5c1.8,0,3.3,1.5,3.3,3.3l0,0
	C184.3,147.8,182.8,149.3,181,149.3z"/>
<rect x="88" y="142.2" width="12.2" height="9.3"/>
<path d="M184.5,50.7H86.6c-2.1,0-3.8-1.7-3.8-3.8v0c0-2.1,1.7-3.8,3.8-3.8h97.9c2.1,0,3.8,1.7,3.8,3.8v0
	C188.3,49,186.6,50.7,184.5,50.7z"/>
<path class="st11" d="M107.2,92.3c0,0,1.6-13.6,18.2-19.6c0,0,16-4.7,27.4,9c0,0,15.5-1.8,21.9,10.6c6.4,12.3,1,20.1,1,20.1
	s-4.4,10-17.4,12h-52.2c0,0-15,0-15-17.8C91.1,106.7,92.6,92.2,107.2,92.3z"/>
<circle class="st12" cx="134.5" cy="100.3" r="21.9"/>
<circle class="st13" cx="134.8" cy="100.5" r="17.4"/>
<path class="st14" d="M133.1,87.6c0,0-5.1,13.7-5.1,13.8s4.4-0.4,4.4-0.4l-3,13.9l13-18.9l-4.7,0.3l4.9-9.5L133.1,87.6z"/>
<circle class="st12" cx="149.3" cy="95.9" r="0.8"/>
<path class="st12" d="M148.3,96.9c0,0,3.5,3.7,0.3,11.2c0,0,3.5-3.9,2-11.6C150.6,96.5,149.9,97.6,148.3,96.9z"/>
<circle class="st12" cx="120.3" cy="105.1" r="0.8"/>
<path class="st12" d="M121.2,104.1c0,0-3.5-3.7-0.3-11.2c0,0-3.5,3.9-2,11.6C118.9,104.5,119.7,103.4,121.2,104.1z"/>
<rect x="152.1" y="107.8" transform="matrix(0.9261 0.3772 -0.3772 0.9261 53.4847 -51.2094)" class="st12" width="10.7" height="6.2"/>
<path class="st12" d="M166.5,109.5c-2.8-1.3-4.9,0.2-4.9,0.2l-1.4,2.3c-2.8,4.6,2.2,6.6,2.2,6.6l5.7,2.1c0,0,4.4-2.5,7.5-7.9"/>
<line class="st15" x1="92" y1="40.5" x2="92" y2="51.8"/>
<line class="st15" x1="95.5" y1="40.8" x2="95.5" y2="52.1"/>
<path class="st4" d="M44,124.4"/>
<g>
	<path d="M31.9,281.3v-36.5H19v-8.8h1.1c4.8,0,8.5-0.8,10.8-2.4c2.4-1.6,3.7-4.2,4-7.8h11v55.6H31.9z"/>
</g>
<path class="st16" d="M44,128.4c0,0-3,62.5,29.4,50.6s17.1-35.1,17.1-35.1"/>
<path d="M94.1,145.7L94.1,145.7c-2.4,0-4.4,2-4.4,4.4v4c0,2.4,2,4.4,4.4,4.4h0c2.4,0,4.4-2,4.4-4.4v-4
	C98.5,147.7,96.5,145.7,94.1,145.7z"/>
<path d="M178.5,144.9L178.5,144.9c-2.4,0-4.4,2-4.4,4.4v4c0,2.4,2,4.4,4.4,4.4l0,0c2.4,0,4.4-2,4.4-4.4v-4
	C182.9,146.8,180.9,144.9,178.5,144.9z"/>
<g>
	<path class="st17" d="M91.6,236.1v3.6c-1.6-1-3-1.4-4.2-1.4c-1.2,0-2.2,0.4-2.9,1.2s-1.1,1.9-1.1,3.3c0,1.3,0.4,2.4,1.1,3.2
		c0.8,0.8,1.8,1.2,3.1,1.2c1.1,0,2.4-0.4,4-1.3v3.6c-1.7,0.6-3.2,0.9-4.4,0.9c-2,0-3.7-0.7-5.1-2.2c-1.4-1.5-2.1-3.3-2.1-5.4
		c0-2.1,0.7-4,2.1-5.5c1.4-1.5,3.1-2.2,5.2-2.2C88.7,235.1,90.1,235.4,91.6,236.1z"/>
	<path class="st17" d="M93.5,242.7c0-2.2,0.7-4,2.2-5.4c1.5-1.4,3.2-2.1,5.2-2.1c2.2,0,4,0.7,5.5,2.2s2.2,3.3,2.2,5.4
		c0,2.2-0.7,4-2.1,5.4c-1.4,1.4-3.2,2.2-5.4,2.2c-2.2,0-3.9-0.7-5.3-2.1C94.2,246.7,93.5,244.9,93.5,242.7z M101,238.1
		c-1.2,0-2.2,0.4-3,1.3s-1.1,2-1.1,3.4c0,1.3,0.4,2.4,1.2,3.3s1.8,1.3,2.9,1.3c1.2,0,2.2-0.4,3-1.3c0.8-0.9,1.1-2,1.1-3.4
		c0-1.4-0.4-2.5-1.1-3.3C103.2,238.6,102.2,238.1,101,238.1z"/>
	<path class="st17" d="M121,235.3h3.1v14.8H121l-6.8-9.6v9.6H111v-14.8h3.2l6.8,9.5V235.3z"/>
	<path class="st17" d="M127.1,235.3h8.4v2.9h-5.2v3h5.2v2.9h-5.2v3.1h5.2v2.9h-8.4V235.3z"/>
	<path class="st17" d="M149.3,236.1v3.6c-1.6-1-3-1.4-4.2-1.4s-2.2,0.4-2.9,1.2s-1.1,1.9-1.1,3.3c0,1.3,0.4,2.4,1.1,3.2
		s1.8,1.2,3.1,1.2c1.1,0,2.5-0.4,4-1.3v3.6c-1.7,0.6-3.2,0.9-4.4,0.9c-2,0-3.7-0.7-5.1-2.2c-1.4-1.5-2.1-3.3-2.1-5.4
		c0-2.1,0.7-4,2.1-5.5c1.4-1.5,3.1-2.2,5.2-2.2C146.4,235.1,147.8,235.4,149.3,236.1z"/>
	<path class="st17" d="M150.7,235.3h10v3.2h-3.4v11.7H154v-11.7h-3.4V235.3z"/>
	<path class="st17" d="M166.3,235.3h2.5l6,14.8h-3.2l-1.2-2.9h-5.7l-1.2,2.9h-3.2L166.3,235.3z M167.5,240.2l-1.7,4.4h3.5
		L167.5,240.2z"/>
	<path class="st17" d="M183.3,235.3h8.4v2.9h-5.2v3h5.2v2.9h-5.2v3.1h5.2v2.9h-8.4V235.3z"/>
	<path class="st17" d="M194.4,235.3h3.2v11.6h4.4v3.2h-7.6V235.3z"/>
	<path class="st17" d="M88.8,259.6l-2,2.2c-1-0.6-1.8-0.9-2.3-0.9c-0.4,0-0.7,0.1-0.9,0.4c-0.3,0.3-0.4,0.6-0.4,1
		c0,0.7,0.7,1.4,2,1.9c1,0.4,1.7,0.8,2.2,1.1c0.5,0.3,0.9,0.8,1.2,1.4s0.5,1.2,0.5,1.9c0,1.3-0.5,2.4-1.5,3.3
		c-1,0.9-2.2,1.4-3.6,1.4c-1.5,0-3.1-0.7-4.6-2.2l2.1-2.5c0.9,1,1.8,1.5,2.6,1.5c0.4,0,0.8-0.2,1.1-0.5s0.5-0.7,0.5-1.1
		c0-0.8-0.8-1.5-2.5-2c-0.9-0.3-1.6-0.7-2-1s-0.7-0.7-1-1.3s-0.4-1.2-0.4-1.7c0-1.3,0.4-2.4,1.3-3.2c0.9-0.8,2-1.2,3.4-1.2
		C86.3,258.1,87.7,258.6,88.8,259.6z"/>
	<path class="st17" d="M91.6,258.3h8.4v2.9h-5.2v3h5.2v2.9h-5.2v3.1h5.2v2.9h-8.4V258.3z"/>
	<path class="st17" d="M112.4,258.3h3.1v14.8h-3.1l-6.8-9.6v9.6h-3.2v-14.8h3.2l6.8,9.5V258.3z"/>
	<path class="st17" d="M126.9,259.6l-2,2.2c-1-0.6-1.8-0.9-2.3-0.9c-0.4,0-0.7,0.1-0.9,0.4c-0.3,0.3-0.4,0.6-0.4,1
		c0,0.7,0.7,1.4,2,1.9c1,0.4,1.7,0.8,2.2,1.1c0.5,0.3,0.9,0.8,1.3,1.4c0.3,0.6,0.5,1.2,0.5,1.9c0,1.3-0.5,2.4-1.5,3.3
		s-2.2,1.4-3.6,1.4c-1.5,0-3.1-0.7-4.6-2.2l2.1-2.5c0.9,1,1.8,1.5,2.6,1.5c0.4,0,0.8-0.2,1.1-0.5c0.4-0.3,0.5-0.7,0.5-1.1
		c0-0.8-0.8-1.5-2.5-2c-0.9-0.3-1.6-0.7-2-1s-0.7-0.7-1-1.3s-0.4-1.2-0.4-1.7c0-1.3,0.4-2.4,1.3-3.2c0.9-0.8,2-1.2,3.4-1.2
		C124.4,258.1,125.8,258.6,126.9,259.6z"/>
	<path class="st17" d="M129.1,265.7c0-2.2,0.7-4,2.2-5.4c1.5-1.4,3.2-2.1,5.2-2.1c2.2,0,4,0.7,5.5,2.2c1.4,1.4,2.2,3.3,2.2,5.4
		c0,2.2-0.7,4-2.1,5.4c-1.4,1.4-3.2,2.2-5.4,2.2c-2.2,0-3.9-0.7-5.3-2.1C129.8,269.7,129.1,267.9,129.1,265.7z M136.6,261.1
		c-1.2,0-2.2,0.4-3,1.3c-0.8,0.9-1.1,2-1.1,3.4c0,1.3,0.4,2.4,1.2,3.3s1.8,1.3,2.9,1.3c1.2,0,2.2-0.4,3-1.3c0.8-0.9,1.1-2,1.1-3.4
		c0-1.4-0.4-2.5-1.1-3.3S137.8,261.1,136.6,261.1z"/>
	<path class="st17" d="M146.7,258.3h4.9c1.5,0,2.7,0.4,3.5,1.2c0.9,0.8,1.3,1.8,1.3,3.2c0,0.8-0.2,1.6-0.6,2.4s-1.1,1.5-2.2,1.9
		l4.2,6.2h-3.7l-3.8-5.7h-0.4v5.7h-3.2V258.3z M149.9,260.9v3.9h0.7c1.7,0,2.5-0.7,2.5-2c0-0.6-0.2-1-0.7-1.3
		c-0.4-0.3-1-0.5-1.8-0.5H149.9z"/>
</g>
<g>
</g>
<g>
</g>
<g>
</g>
<g>
</g>
<g>
</g>
</svg>
