<?xml version="1.0" encoding="utf-8"?>
<!-- Generator: Adobe Illustrator 21.0.2, SVG Export Plug-In . SVG Version: 6.00 Build 0)  -->
<svg version="1.1" id="Layer_1" xmlns="http://www.w3.org/2000/svg" xmlns:xlink="http://www.w3.org/1999/xlink" x="0px" y="0px"
	 viewBox="0 0 263 304.7" style="enable-background:new 0 0 263 304.7;" xml:space="preserve">
<style type="text/css">
	
		.st0{fill-rule:evenodd;clip-rule:evenodd;fill:none;stroke:#9B9B8C;stroke-linecap:round;stroke-linejoin:round;stroke-miterlimit:10;}
	.st1{fill:#214478;}
	.st2{fill:#FFFFFF;}
	.st3{fill:#D4AA00;}
	.st4{fill:#5B5B5B;}
</style>
<line class="st0" x1="75" y1="225.5" x2="75" y2="282.5"/>
<path class="st1" d="M78.4,75.3c0,0,2.3-18.9,25.4-27.3c0,0,22.3-6.6,38.1,12.5c0,0,21.6-2.5,30.6,14.7c8.9,17.2,1.4,28,1.4,28
	s-6.1,13.9-24.3,16.8H76.9c0,0-20.9,0.1-20.9-24.8C56,95.3,58.1,75.2,78.4,75.3z"/>
<circle class="st2" cx="116.4" cy="86.5" r="30.5"/>
<circle class="st3" cx="116.9" cy="86.7" r="24.3"/>
<path class="st2" d="M114.5,69.7c0,0-7.2,19.1-7.2,19.2c0,0.1,6.1-0.6,6.1-0.6l-4.2,19.4l18.2-26.4l-6.6,0.4l6.8-13.3L114.5,69.7z"
	/>
<circle class="st2" cx="135.6" cy="84.4" r="1"/>
<path class="st2" d="M134.4,85.7c0,0,4.4,4.6,0.4,14c0,0,4.3-4.9,2.5-14.5C137.3,85.3,136.3,86.7,134.4,85.7z"/>
<circle class="st2" cx="97.7" cy="93.2" r="1.1"/>
<path class="st2" d="M99,91.8c0,0-4.9-5.2-0.4-15.7c0,0-4.9,5.5-2.8,16.2C95.8,92.3,96.8,90.7,99,91.8z"/>
<rect x="142.1" y="99.4" transform="matrix(0.9261 0.3772 -0.3772 0.9261 49.9453 -48.5056)" class="st2" width="13.4" height="7.7"/>
<path class="st2" d="M161,101.5c-3.5-1.6-6.1,0.3-6.1,0.3l-1.7,2.9c-3.5,5.7,2.8,8.3,2.8,8.3l7.1,2.7c0,0,5.5-3.1,9.3-9.9"/>
<g>
	<path d="M16.7,263.8H30c0.1,2.7,0.7,4.8,2.1,6.2s3.3,2.1,5.8,2.1c2.3,0,4.1-0.7,5.5-2c1.4-1.3,2.1-3.1,2.1-5.3
		c0-2.5-0.8-4.4-2.5-5.7c-1.7-1.3-4.2-1.9-7.6-1.9h-1.2v-9.4h0.9c3.1,0,5.4-0.6,6.9-1.8c1.5-1.2,2.3-2.9,2.3-5.2
		c0-2-0.6-3.6-1.7-4.7c-1.1-1.2-2.7-1.7-4.7-1.7c-2.4,0-4.2,0.6-5.4,1.9c-1.2,1.3-2,3.2-2.1,5.8l-12.9,0c0.1-5.7,2-10.1,5.6-13.2
		c3.6-3.1,8.7-4.7,15.2-4.7c5.9,0,10.6,1.4,14.1,4.1c3.5,2.8,5.3,6.4,5.3,11c0,2.5-0.6,4.7-1.7,6.6c-1.1,2-2.8,3.7-5.1,5.3
		c2.8,1.2,4.9,3,6.3,5.2s2.1,5.1,2.1,8.3c0,5.6-2,10-5.9,13.3c-4,3.3-9.3,4.9-16.1,4.9c-6.6,0-11.6-1.7-15.2-5
		C18.5,274.6,16.7,269.9,16.7,263.8z"/>
</g>
<g>
	<path class="st4" d="M89.7,236.2h2.5l6,14.8H95l-1.2-2.9h-5.7l-1.2,2.9h-3.2L89.7,236.2z M90.9,241.1l-1.7,4.4h3.5L90.9,241.1z"/>
	<path class="st4" d="M110.4,237v3.6c-1.6-1-3-1.4-4.2-1.4c-1.2,0-2.2,0.4-2.9,1.2s-1.1,1.9-1.1,3.3c0,1.3,0.4,2.4,1.1,3.2
		c0.8,0.8,1.8,1.2,3.1,1.2c1.1,0,2.4-0.4,4-1.3v3.6c-1.7,0.6-3.2,0.9-4.4,0.9c-2,0-3.7-0.7-5.1-2.2c-1.4-1.5-2.1-3.3-2.1-5.4
		c0-2.1,0.7-4,2.1-5.5c1.4-1.5,3.1-2.2,5.2-2.2C107.5,236,108.9,236.4,110.4,237z"/>
	<path class="st4" d="M123.9,237v3.6c-1.6-1-3-1.4-4.2-1.4c-1.2,0-2.2,0.4-2.9,1.2s-1.1,1.9-1.1,3.3c0,1.3,0.4,2.4,1.1,3.2
		c0.8,0.8,1.8,1.2,3.1,1.2c1.1,0,2.4-0.4,4-1.3v3.6c-1.7,0.6-3.2,0.9-4.4,0.9c-2,0-3.7-0.7-5.1-2.2c-1.4-1.5-2.1-3.3-2.1-5.4
		c0-2.1,0.7-4,2.1-5.5c1.4-1.5,3.1-2.2,5.2-2.2C121,236,122.4,236.4,123.9,237z"/>
	<path class="st4" d="M126.3,236.2h8.4v2.9h-5.2v3h5.2v2.9h-5.2v3.1h5.2v2.9h-8.4V236.2z"/>
	<path class="st4" d="M137.3,236.2h5.1c2.2,0,3.9,0.7,5.2,2s2,3.2,2,5.4c0,2.2-0.7,4-2,5.4c-1.4,1.3-3.2,2-5.4,2h-4.8V236.2z
		 M140.5,239.1v9.2h1.3c1.3,0,2.4-0.4,3.2-1.1c0.8-0.7,1.3-1.9,1.3-3.6c0-1-0.2-1.8-0.6-2.6s-1-1.3-1.8-1.5
		c-0.8-0.3-1.5-0.4-2.2-0.4H140.5z"/>
	<path class="st4" d="M152.1,236.2h8.4v2.9h-5.2v3h5.2v2.9h-5.2v3.1h5.2v2.9h-8.4V236.2z"/>
	<path class="st4" d="M174.5,236.2h2.5l6,14.8h-3.2l-1.2-2.9h-5.7l-1.2,2.9h-3.2L174.5,236.2z M175.7,241.1l-1.7,4.4h3.5
		L175.7,241.1z"/>
	<path class="st4" d="M191.5,236.2h3.2v11.6h4.4v3.2h-7.6V236.2z"/>
	<path class="st4" d="M206.5,236.2h2.5l6,14.8h-3.2l-1.2-2.9h-5.7l-1.2,2.9h-3.2L206.5,236.2z M207.7,241.1l-1.7,4.4h3.5
		L207.7,241.1z"/>
	<path class="st4" d="M89.7,259.2h2.5l6,14.8H95l-1.2-2.9h-5.7l-1.2,2.9h-3.2L89.7,259.2z M90.9,264.1l-1.7,4.4h3.5L90.9,264.1z"/>
	<path class="st4" d="M100.5,259.2h5.1c1.4,0,2.5,0.4,3.3,1.2c0.8,0.8,1.3,1.8,1.3,3.1c0,0.9-0.2,1.7-0.6,2.4
		c-0.4,0.8-1,1.3-1.9,1.7c-0.8,0.4-1.5,0.6-2.1,0.6l-1.9,0v5.7h-3.2V259.2z M103.6,261.9v3.8h1.2c0.5,0,1-0.2,1.4-0.6
		s0.6-0.8,0.6-1.4c0-0.6-0.2-1.1-0.6-1.4c-0.4-0.3-1-0.5-1.8-0.5L103.6,261.9z"/>
	<path class="st4" d="M112.8,259.2h3.2v11.6h4.4v3.2h-7.6V259.2z"/>
	<path class="st4" d="M122.5,259.2h3.2v14.8h-3.2V259.2z"/>
	<path class="st4" d="M139.7,260v3.6c-1.6-1-3-1.4-4.2-1.4s-2.2,0.4-2.9,1.2s-1.1,1.9-1.1,3.3c0,1.3,0.4,2.4,1.1,3.2
		s1.8,1.2,3.1,1.2c1.1,0,2.5-0.4,4-1.3v3.6c-1.7,0.6-3.2,0.9-4.4,0.9c-2,0-3.7-0.7-5.1-2.2c-1.4-1.5-2.1-3.3-2.1-5.4
		c0-2.1,0.7-4,2.1-5.5c1.4-1.5,3.1-2.2,5.2-2.2C136.8,259,138.2,259.4,139.7,260z"/>
	<path class="st4" d="M147.3,259.2h2.5l6,14.8h-3.2l-1.2-2.9h-5.7l-1.2,2.9h-3.2L147.3,259.2z M148.5,264.1l-1.7,4.4h3.5
		L148.5,264.1z"/>
	<path class="st4" d="M168,260v3.6c-1.6-1-3-1.4-4.2-1.4s-2.2,0.4-2.9,1.2s-1.1,1.9-1.1,3.3c0,1.3,0.4,2.4,1.1,3.2s1.8,1.2,3.1,1.2
		c1.1,0,2.5-0.4,4-1.3v3.6c-1.7,0.6-3.2,0.9-4.4,0.9c-2,0-3.7-0.7-5.1-2.2c-1.4-1.5-2.1-3.3-2.1-5.4c0-2.1,0.7-4,2.1-5.5
		c1.4-1.5,3.1-2.2,5.2-2.2C165.1,259,166.5,259.4,168,260z"/>
	<path class="st4" d="M170.3,259.2h3.2v14.8h-3.2V259.2z"/>
	<path class="st4" d="M175.9,266.7c0-2.2,0.7-4,2.2-5.4c1.5-1.4,3.2-2.1,5.2-2.1c2.2,0,4,0.7,5.5,2.2c1.4,1.4,2.2,3.3,2.2,5.4
		c0,2.2-0.7,4-2.1,5.4c-1.4,1.4-3.2,2.2-5.4,2.2c-2.2,0-3.9-0.7-5.3-2.1C176.6,270.7,175.9,268.9,175.9,266.7z M183.4,262.1
		c-1.2,0-2.2,0.4-3,1.3c-0.8,0.9-1.1,2-1.1,3.4c0,1.3,0.4,2.4,1.2,3.3s1.8,1.3,2.9,1.3c1.2,0,2.2-0.4,3-1.3c0.8-0.9,1.1-2,1.1-3.4
		c0-1.4-0.4-2.5-1.1-3.3S184.7,262.1,183.4,262.1z M181.7,258.3l1.6-3.4h3.5l-3.1,3.4H181.7z"/>
	<path class="st4" d="M203.4,259.2h3.1v14.8h-3.1l-6.8-9.6v9.6h-3.2v-14.8h3.2l6.8,9.5V259.2z"/>
</g>
<g id="Layer_2">
	<g id="Layer_1-2">
		<path d="M236.3,178.3h-61.4V102h61.4V178.3z M205.8,190.9c-2.2,0-3.9-1.8-3.9-3.9s1.8-3.9,3.9-3.9s3.9,1.8,3.9,3.9l0,0
			C209.5,189.1,207.9,190.8,205.8,190.9z M79.6,147.2v-5.6c0.2-3.7-2.6-6.8-6.3-7c-0.1,0-0.1,0-0.2,0H47c-3.7,0.1-6.6,3.2-6.5,6.8
			c0,0.1,0,0.1,0,0.2v5.6h-6.3V29.7H208V83h-27.8c-6.2-0.1-11.3,4.8-11.5,10.9c0,0.1,0,0.2,0,0.3v53H79.6z M74,184.5H46.5v-43
			c0-0.9,0.6-1.4,0.9-1.4h26.2c0.3,0,0.9,0.6,0.9,1.4v42.9L74,184.5z M230.7,83h-11.2V29.5c0-5.9-4.7-10.8-10.7-11H33.7
			c-5.9,0-10.7,4.9-10.7,10.8c0,0.1,0,0.1,0,0.2v118c0,5.9,4.7,10.8,10.7,11h7v29.9c-0.2,3.7,2.6,6.8,6.3,7c0.1,0,0.1,0,0.2,0h26.2
			c3.7-0.1,6.6-3.2,6.5-6.8c0-0.1,0-0.1,0-0.2v-29.9h28.3l-6.2,25.5H92c-3.1,0-5.6,2.5-5.6,5.6s2.5,5.6,5.6,5.6h57.4
			c3.1,0,5.6-2.5,5.6-5.6s-2.5-5.6-5.6-5.6H141l-6.2-25.5H169v25.5c0.2,6.2,5.2,11.2,11.5,11.2h50.2c6.2,0.1,11.3-4.8,11.5-10.9
			c0-0.1,0-0.2,0-0.3V94.2c0-6.2-5-11.2-11.2-11.3C230.9,83,230.8,83,230.7,83z"/>
	</g>
</g>
<path class="st1" d="M53.1,160c0,0,0.4-3.5,4.7-5c0,0,4.1-1.2,7,2.3c0,0,4-0.5,5.6,2.7c1.6,3.2,0.3,5.1,0.3,5.1s-1.1,2.6-4.4,3.1
	H52.8c0,0-3.8,0-3.8-4.5C49,163.7,49.4,160,53.1,160z"/>
<circle class="st2" cx="60.1" cy="162.1" r="5.6"/>
<circle class="st3" cx="60.2" cy="162.1" r="4.5"/>
<path class="st2" d="M59.7,158.8c0,0-1.3,3.5-1.3,3.5c0,0,1.1-0.1,1.1-0.1l-0.8,3.6l3.3-4.8l-1.2,0.1l1.3-2.4L59.7,158.8z"/>
<circle class="st2" cx="63.9" cy="160.9" r="0.2"/>
<path class="st2" d="M63.6,161.2c0,0,0.9,1,0.1,2.9c0,0,0.9-1,0.5-3C64.2,161.1,64,161.4,63.6,161.2z"/>
<circle class="st2" cx="56.5" cy="163.3" r="0.2"/>
<path class="st2" d="M56.7,163.1c0,0-0.9-1-0.1-2.9c0,0-0.9,1-0.5,3C56.1,163.1,56.3,162.9,56.7,163.1z"/>
<rect x="64.6" y="164" transform="matrix(0.9261 0.3772 -0.3772 0.9261 67.0394 -12.7106)" class="st2" width="2.7" height="1.6"/>
<path class="st2" d="M68.3,164.4c-0.7-0.3-1.3,0.1-1.3,0.1l-0.4,0.6c-0.7,1.2,0.6,1.7,0.6,1.7l1.4,0.5c0,0,1.1-0.6,1.9-2"/>
<path class="st1" d="M189.4,132.7c0,0,0.9-7.9,10.6-11.4c0,0,9.4-2.8,16,5.3c0,0,9.1-1,12.8,6.2s0.6,11.7,0.6,11.7s-2.6,5.8-10.2,7
	h-30.5c0,0-8.7,0-8.7-10.4C180,141.1,180.9,132.7,189.4,132.7z"/>
<circle class="st2" cx="205.3" cy="137.4" r="12.8"/>
<circle class="st3" cx="205.5" cy="137.5" r="10.2"/>
<path class="st2" d="M204.5,130c0,0-3,8-3,8c0,0,2.6-0.2,2.6-0.2l-1.8,8.1l7.6-11.1l-2.8,0.2l2.9-5.6L204.5,130z"/>
<circle class="st2" cx="214" cy="134.8" r="0.5"/>
<path class="st2" d="M213.4,135.4c0,0,2.1,2.2,0.2,6.6c0,0,2-2.3,1.2-6.8C214.8,135.2,214.3,135.8,213.4,135.4z"/>
<circle class="st2" cx="197" cy="140.2" r="0.5"/>
<path class="st2" d="M197.6,139.6c0,0-2.1-2.2-0.2-6.6c0,0-2,2.3-1.2,6.8C196.2,139.8,196.7,139.2,197.6,139.6z"/>
<rect x="215.7" y="141.8" transform="matrix(0.9261 0.3772 -0.3772 0.9261 70.3358 -71.9234)" class="st2" width="6.3" height="3.6"/>
<path class="st2" d="M224,142.8c-1.6-0.7-2.9,0.1-2.9,0.1l-0.8,1.4c-1.6,2.7,1.3,3.9,1.3,3.9l3.3,1.3c0,0,2.6-1.5,4.4-4.6"/>
<rect x="56.7" y="137.4" class="st2" width="7.6" height="0.9"/>
<g>
</g>
<g>
</g>
<g>
</g>
<g>
</g>
<g>
</g>
</svg>
