<?xml version="1.0" encoding="utf-8"?>
<!-- Generator: Adobe Illustrator 21.0.2, SVG Export Plug-In . SVG Version: 6.00 Build 0)  -->
<svg version="1.1" id="Layer_1" xmlns="http://www.w3.org/2000/svg" xmlns:xlink="http://www.w3.org/1999/xlink" x="0px" y="0px"
	 viewBox="0 0 1669.4 409.5" style="enable-background:new 0 0 1669.4 409.5;" xml:space="preserve">
<style type="text/css">
	.st0{fill:#214478;stroke:#FFFFFF;stroke-miterlimit:10;}
	.st1{fill:#FFFFFF;}
	.st2{fill:#D4AA00;}
	.st3{fill:#214478;}
</style>
<path class="st0" d="M140.9,155.6c0,0,11-92.2,123.5-132.7c0,0,108.5-32,185.5,61c0,0,105.3-12,148.7,71.7s7,136.3,7,136.3
	s-29.7,67.7-118,81.7H133.4c0,0-101.5,0.3-101.5-120.7C31.9,252.9,41.9,154.7,140.9,155.6z"/>
<circle class="st1" cx="329.4" cy="207.1" r="148.5"/>
<circle class="st2" cx="329.2" cy="208.2" r="118.3"/>
<path class="st1" d="M317.6,126.9c0,0-34.8,92.8-34.8,93.3s29.7-2.8,29.7-2.8l-20.3,94.5l88.5-128.5l-32,1.8l33.2-64.7L317.6,126.9z
	"/>
<g>
	<path class="st3" d="M692,116.3h30.5c3.6,0,6,1.8,7.3,5.4l35.1,106.9c0.8,2.1,0.7,3.9-0.2,5.2c-0.9,1.4-2.4,2-4.4,2h-25.8
		c-4,0-6.4-1.9-7.5-5.6l-3.7-13H691l-3.6,13c-1,3.7-3.5,5.6-7.5,5.6h-25.8c-2,0-3.5-0.7-4.4-2c-0.9-1.4-1-3.1-0.2-5.2l35.1-106.9
		C685.9,118.1,688.4,116.3,692,116.3z M696.7,187.3h20.5l-9.7-34.8h-0.5L696.7,187.3z"/>
	<path class="st3" d="M840,229.8v-38.3h-27.1v38.3c0,4.1-2,6.1-6.1,6.1H782c-4.1,0-6.1-2-6.1-6.1V122.4c0-4.1,2-6.1,6.1-6.1h24.8
		c4.1,0,6.1,2,6.1,6.1V159H840v-36.7c0-4.1,2-6.1,6.1-6.1h24.8c4.1,0,6.1,2,6.1,6.1v107.4c0,4.1-2,6.1-6.1,6.1h-24.8
		C842,235.9,840,233.9,840,229.8z"/>
	<path class="st3" d="M906.1,129.4c9.7-10.1,23.3-15.1,40.7-15.1c17.4,0,31,5,40.7,15.1c9.7,10.1,14.6,25.7,14.6,46.7
		c0,21.1-4.9,36.6-14.6,46.7c-9.7,10.1-23.3,15.1-40.7,15.1c-17.4,0-31-5-40.7-15.1c-9.7-10.1-14.6-25.6-14.6-46.7
		C891.5,155.1,896.4,139.5,906.1,129.4z M933.4,199.4c2.9,4.7,7.4,7.1,13.4,7.1c6,0,10.5-2.4,13.4-7.1c2.9-4.7,4.4-12.5,4.4-23.3
		c0-10.8-1.5-18.6-4.4-23.3c-2.9-4.7-7.4-7.1-13.4-7.1c-6,0-10.5,2.4-13.4,7.1c-2.9,4.7-4.4,12.5-4.4,23.3
		C929,186.9,930.5,194.7,933.4,199.4z"/>
	<path class="st3" d="M1022.8,116.3h43.2c17.1,0,29.9,3.3,38.5,9.9c8.6,6.6,12.9,17.6,12.9,33c0,17-7.2,28.9-21.7,35.6l20.3,33.4
		c1.2,2,1.5,3.8,0.8,5.3c-0.7,1.5-2.1,2.3-4.2,2.3h-24.8c-3.7,0-6.6-1.6-8.5-4.9l-17.5-30.6h-8.6v29.4c0,4.1-2,6.1-6.1,6.1h-24.4
		c-4.1,0-6.1-2-6.1-6.1V122.4C1016.7,118.3,1018.7,116.3,1022.8,116.3z M1053.3,171.7h12.2c5.3,0,9.1-1,11.4-3
		c2.3-2,3.5-5.2,3.5-9.5c0-4.8-1.1-8.1-3.4-9.9c-2.3-1.7-6.1-2.6-11.5-2.6h-12.2V171.7z"/>
	<path class="st3" d="M1137.7,116.3h43.2c17.1,0,29.9,3.3,38.5,9.9c8.6,6.6,12.9,17.6,12.9,33c0,17-7.2,28.9-21.7,35.6l20.3,33.4
		c1.2,2,1.5,3.8,0.8,5.3c-0.7,1.5-2.1,2.3-4.2,2.3h-24.8c-3.7,0-6.6-1.6-8.5-4.9l-17.5-30.6h-8.6v29.4c0,4.1-2,6.1-6.1,6.1h-24.4
		c-4.1,0-6.1-2-6.1-6.1V122.4C1131.6,118.3,1133.7,116.3,1137.7,116.3z M1168.2,171.7h12.2c5.3,0,9.1-1,11.4-3
		c2.3-2,3.5-5.2,3.5-9.5c0-4.8-1.1-8.1-3.4-9.9c-2.3-1.7-6.1-2.6-11.5-2.6h-12.2V171.7z"/>
	<path class="st3" d="M1283,116.3h30.5c3.6,0,6,1.8,7.3,5.4l35.1,106.9c0.8,2.1,0.7,3.9-0.2,5.2c-0.9,1.4-2.4,2-4.4,2h-25.8
		c-4,0-6.4-1.9-7.5-5.6l-3.7-13H1282l-3.6,13c-1,3.7-3.5,5.6-7.5,5.6h-25.8c-2,0-3.5-0.7-4.4-2c-0.9-1.4-1-3.1-0.2-5.2l35.1-106.9
		C1277,118.1,1279.4,116.3,1283,116.3z M1287.8,187.3h20.5l-9.7-34.8h-0.5L1287.8,187.3z"/>
	<path class="st2" d="M1347.6,142.7v-20.3c0-4.1,2-6.1,6.1-6.1h80.4c4.1,0,6.1,2,6.1,6.1v20.3c0,4.1-2,6.1-6.1,6.1h-21.7v81.1
		c0,4.1-2,6.1-6.1,6.1h-24.8c-4.1,0-6.1-2-6.1-6.1v-81.1h-21.7C1349.7,148.7,1347.6,146.7,1347.6,142.7z"/>
	<path class="st2" d="M1527.2,189.8H1489v15.7h41.7c4.1,0,6.1,2,6.1,6.1v18.2c0,4.1-2,6.1-6.1,6.1h-71.9c-4.1,0-6.1-2-6.1-6.1V122.4
		c0-4.1,2-6.1,6.1-6.1h70.9c4.1,0,6.1,2,6.1,6.1v18.2c0,4.1-2,6.1-6.1,6.1H1489v14h38.1c4,0,5.9,2,5.9,6.1v17.1
		C1533.1,187.8,1531.1,189.8,1527.2,189.8z"/>
	<path class="st2" d="M1610.8,206.2c5.7,0,11.2-1.1,16.8-3.4c2.3-0.9,4-1.2,5.3-0.8c1.3,0.4,2.4,1.5,3.3,3.5l7.1,15.2
		c0.8,2,1,3.6,0.5,4.6c-0.5,1.1-1.6,2.2-3.6,3.5c-9.2,6.1-21,9.1-35.6,9.1c-18.1,0-32.2-5-42.4-15.1c-10.2-10.1-15.3-25.6-15.3-46.7
		c0-21.2,5-36.8,14.9-46.8c9.9-10,23.9-15,41.9-15c14.4,0,26.1,3,35.1,9c1.9,1.2,3.1,2.4,3.6,3.5c0.5,1.1,0.3,2.6-0.5,4.6l-7,15
		c-0.8,1.9-1.9,3.1-3.2,3.5c-1.4,0.4-3.2,0.1-5.4-0.8c-5-2-10.4-3-16.3-3c-9.3,0-15.9,2.3-19.8,6.8c-3.9,4.5-5.8,12.3-5.8,23.3
		c0,10.9,2,18.7,6.1,23.2S1601.4,206.2,1610.8,206.2z"/>
</g>
<circle class="st1" cx="427.4" cy="176.9" r="5.3"/>
<path class="st1" d="M421,183.8c0,0,23.9,25.3,2,76.3c0,0,23.6-26.6,13.6-78.6C436.6,181.4,431.4,188.9,421,183.8z"/>
<circle class="st1" cx="230.7" cy="239.8" r="5.3"/>
<path class="st1" d="M237.1,232.9c0,0-23.9-25.3-2-76.3c0,0-23.6,26.6-13.6,78.6C221.5,235.3,226.7,227.8,237.1,232.9z"/>
<rect x="446.6" y="258.1" transform="matrix(0.9261 0.3772 -0.3772 0.9261 140.9865 -161.5846)" class="st1" width="72.8" height="42"/>
<g>
	<path class="st2" d="M739.7,276.5h12.9l9.4,30.1l9.4-30.1h12.4l6.5,50.2h-10.3l-4.4-35.4l-11.1,35.4h-4.9l-11.3-35.7l-4.2,35.7
		h-10.5L739.7,276.5z"/>
	<path class="st2" d="M796.5,301.6c0-7.4,2.5-13.5,7.4-18.4c4.9-4.8,10.7-7.3,17.5-7.3c7.4,0,13.6,2.4,18.5,7.3
		c4.9,4.9,7.3,11,7.3,18.4c0,7.4-2.4,13.5-7.2,18.4c-4.8,4.9-10.9,7.3-18.2,7.3s-13.3-2.4-18.1-7.3
		C798.9,315.2,796.5,309.1,796.5,301.6z M821.8,286c-4.2-0.1-7.6,1.4-10.2,4.4c-2.6,3-3.9,6.8-3.9,11.6c0,4.5,1.3,8.2,3.9,11.1
		c2.6,2.9,5.9,4.4,9.9,4.4c4.2,0,7.6-1.4,10.2-4.3c2.6-2.9,3.9-6.7,3.9-11.5c0-4.7-1.3-8.4-3.8-11.2
		C829.4,287.5,826,286.1,821.8,286z"/>
	<path class="st2" d="M889.4,276.5h10.6v50.2h-10.5l-23-32.5v32.5h-10.8v-50.2h10.7l23,32.3V276.5z"/>
	<path class="st2" d="M909.5,276.5h10.8v50.2h-10.8V276.5z"/>
	<path class="st2" d="M927,276.5h33.8v10.7h-11.5v39.6h-10.8v-39.6H927V276.5z"/>
	<path class="st2" d="M965.5,301.6c0-7.4,2.5-13.5,7.4-18.4c4.9-4.8,10.7-7.3,17.5-7.3c7.4,0,13.6,2.4,18.5,7.3
		c4.9,4.9,7.3,11,7.3,18.4c0,7.4-2.4,13.5-7.2,18.4c-4.8,4.9-10.9,7.3-18.2,7.3s-13.3-2.4-18.1-7.3
		C967.9,315.2,965.5,309.1,965.5,301.6z M990.9,286c-4.2-0.1-7.6,1.4-10.2,4.4c-2.6,3-3.9,6.8-3.9,11.6c0,4.5,1.3,8.2,3.9,11.1
		c2.6,2.9,5.9,4.4,9.9,4.4c4.2,0,7.6-1.4,10.2-4.3c2.6-2.9,3.9-6.7,3.9-11.5c0-4.7-1.3-8.4-3.8-11.2
		C998.4,287.5,995.1,286.1,990.9,286z"/>
	<path class="st2" d="M1025.1,276.5h16.5c5,0,9,1.3,11.9,4s4.4,6.2,4.4,10.7c0,2.6-0.7,5.3-2,8c-1.3,2.8-3.8,5-7.4,6.5l14.1,20.9
		h-12.4l-13-19.4h-1.2v19.4h-10.8V276.5z M1036,285.5v13.1h2.3c5.7,0,8.5-2.3,8.5-6.9c0-1.9-0.7-3.4-2.2-4.5s-3.5-1.7-6.1-1.7H1036z
		"/>
	<path class="st2" d="M1070.9,276.5h28.3v9.9h-17.4v10.1h17.4v9.8h-17.4v10.4h17.4v9.9h-28.3V276.5z"/>
	<path class="st2" d="M1106.7,301.6c0-7.4,2.5-13.5,7.4-18.4c4.9-4.8,10.7-7.3,17.5-7.3c7.4,0,13.6,2.4,18.5,7.3
		c4.9,4.9,7.3,11,7.3,18.4c0,7.4-2.4,13.5-7.2,18.4c-4.8,4.9-10.9,7.3-18.2,7.3s-13.3-2.4-18.1-7.3
		C1109.1,315.2,1106.7,309.1,1106.7,301.6z M1132.1,286c-4.2-0.1-7.6,1.4-10.2,4.4c-2.6,3-3.9,6.8-3.9,11.6c0,4.5,1.3,8.2,3.9,11.1
		c2.6,2.9,5.9,4.4,9.9,4.4c4.2,0,7.6-1.4,10.2-4.3c2.6-2.9,3.9-6.7,3.9-11.5c0-4.7-1.3-8.4-3.8-11.2
		C1139.6,287.5,1136.3,286.1,1132.1,286z"/>
	<path class="st2" d="M1187,276.5h17.1c7.3,0,13.2,2.3,17.7,6.9c4.5,4.6,6.7,10.7,6.7,18.3c0,7.6-2.3,13.6-6.9,18.2
		c-4.6,4.6-10.7,6.8-18.4,6.8H1187V276.5z M1197.9,286v31h4.3c4.4,0,8.1-1.2,10.9-3.6c2.9-2.4,4.3-6.5,4.3-12.1
		c0-3.3-0.7-6.2-2.1-8.7c-1.4-2.5-3.4-4.3-6-5.2c-2.6-0.9-5.1-1.4-7.5-1.4H1197.9z"/>
	<path class="st2" d="M1237.1,276.5h28.3v9.9h-17.4v10.1h17.4v9.8h-17.4v10.4h17.4v9.9h-28.3V276.5z"/>
	<path class="st2" d="M1295.4,276.5h28.3v9.9h-17.4v10.1h17.4v9.8h-17.4v10.4h17.4v9.9h-28.3V276.5z"/>
	<path class="st2" d="M1366.1,276.5h10.6v50.2h-10.5l-23-32.5v32.5h-10.8v-50.2h10.7l23,32.3V276.5z"/>
	<path class="st2" d="M1386.9,276.5h28.3v9.9h-17.4v10.1h17.4v9.8h-17.4v10.4h17.4v9.9h-28.3V276.5z"/>
	<path class="st2" d="M1424.2,276.5h16.5c5,0,9,1.3,11.9,4s4.4,6.2,4.4,10.7c0,2.6-0.7,5.3-2,8c-1.3,2.8-3.8,5-7.4,6.5l14.1,20.9
		h-12.4l-13-19.4h-1.2v19.4h-10.8V276.5z M1435.1,285.5v13.1h2.3c5.7,0,8.5-2.3,8.5-6.9c0-1.9-0.7-3.4-2.2-4.5s-3.5-1.7-6.1-1.7
		H1435.1z"/>
	<path class="st2" d="M1510.4,287.4l-7.2,6.7c-1.5-2.6-3.4-4.5-5.6-5.8s-4.5-1.9-7-1.9c-3.9,0-7.3,1.5-10.2,4.5
		c-2.9,3-4.3,6.5-4.3,10.6c0,4.3,1.4,8,4.3,11c2.9,3,6.4,4.5,10.5,4.5c2.2,0,4.4-0.6,6.4-1.7c2.1-1.1,3.7-3.2,5-6.3h-11.9v-9.8h23.2
		v6.5c0,3.3-1.1,6.9-3.4,10.8c-2.3,3.8-5.3,6.6-9.1,8.4c-3.8,1.8-7.5,2.7-11.4,2.7c-6.9,0-12.8-2.5-17.6-7.5
		c-4.8-5-7.2-11.2-7.2-18.6c0-7,2.5-13,7.4-18s10.8-7.5,17.7-7.5C1498.8,275.8,1505.6,279.7,1510.4,287.4z"/>
	<path class="st2" d="M1520.8,273.1l5.4-11.4h12l-10.5,11.4H1520.8z M1521,276.5h10.8v50.2H1521V276.5z"/>
	<path class="st2" d="M1559.4,276.5h8.4l20.5,50.2h-10.9l-4-9.9H1554l-3.9,9.9h-10.8L1559.4,276.5z M1563.6,293l-5.9,14.8h11.9
		L1563.6,293z"/>
</g>
<path class="st1" d="M516.3,331c0,0-34.1-13.8-15-45l9.3-15.9c0,0,14.3-10.2,33.3-1.5l61.6,23.3c0,0-9.1,29.7-48.6,54.6"/>
<g>
</g>
<g>
</g>
<g>
</g>
<g>
</g>
<g>
</g>
</svg>
